<?xml version="1.0" encoding="utf-8"?>
<!-- Generator: Adobe Illustrator 17.0.0, SVG Export Plug-In . SVG Version: 6.00 Build 0)  -->
<!DOCTYPE svg PUBLIC "-//W3C//DTD SVG 1.1//EN" "http://www.w3.org/Graphics/SVG/1.1/DTD/svg11.dtd">
<svg version="1.1" id="Layer_1" xmlns="http://www.w3.org/2000/svg" xmlns:xlink="http://www.w3.org/1999/xlink" x="0px" y="0px"
	 width="82.544px" height="82.645px" viewBox="0 0 82.544 82.645" enable-background="new 0 0 82.544 82.645" xml:space="preserve">
<linearGradient id="SVGID_1_" gradientUnits="userSpaceOnUse" x1="80.5498" y1="80.6001" x2="4.2285" y2="4.2788">
	<stop  offset="0.1926" style="stop-color:#303030"/>
	<stop  offset="1" style="stop-color:#4E4D4D"/>
</linearGradient>
<rect x="0" y="0" fill="url(#SVGID_1_)" width="82.544" height="82.645"/>
<rect x="1.128" y="1.145" fill="#252525" width="80.166" height="80"/>
<g>
	<linearGradient id="SVGID_2_" gradientUnits="userSpaceOnUse" x1="41.8407" y1="40.1484" x2="75.8508" y2="80.0643">
		<stop  offset="0.3386" style="stop-color:#151515"/>
		<stop  offset="0.9146" style="stop-color:#000000;stop-opacity:0"/>
	</linearGradient>
	<polygon fill="url(#SVGID_2_)" points="15.378,56.978 36.46,81.145 81.294,81.145 81.294,44.145 68.794,23.895 	"/>
	<polygon fill="#F0EEEE" points="15.544,20.395 33.794,23.895 50.794,20.395 68.794,23.895 68.794,45.395 55.794,56.645 
		51.123,56.812 34.044,59.395 15.544,56.395 	"/>
	<polygon fill="#BABBBB" points="31.204,25.678 17.565,22.895 17.565,54.035 19.814,54.395 33.701,43.07 33.597,28.344 	"/>
	<polygon fill="#BABBBB" points="30.004,50.395 23.803,55.243 33.799,57.036 33.773,53.312 	"/>
	<polygon fill="#BABBBB" points="58.003,24.02 50.816,22.582 50.579,22.629 50.618,29.553 	"/>
	<polygon fill="#BABBBB" points="31.828,49.205 33.756,50.945 33.733,47.642 	"/>
	<polygon fill="#B2B3B3" points="50.618,29.553 44.044,34.478 35.544,28.228 35.544,25.582 50.579,22.629 50.566,20.395 
		33.566,23.895 33.597,28.344 41.273,36.895 33.701,43.07 33.733,47.642 50.642,33.778 	"/>
	<polygon fill="#848484" points="33.597,28.344 33.701,43.07 41.273,36.895 	"/>
	<polygon fill="#848484" points="42.812,56.684 34.003,53.49 33.773,53.312 33.799,57.036 34.007,57.073 	"/>
	<polygon fill="#848484" points="35.544,28.228 44.044,34.478 50.618,29.553 50.579,22.629 35.544,25.582 	"/>
	<g>
		<polygon fill="#BABBBB" points="55.74,45.478 67.325,45.404 67.335,45.395 67.335,25.957 61.628,24.77 50.642,33.778 
			50.739,50.747 		"/>
		<polygon fill="#848484" points="50.642,33.778 33.733,47.642 33.756,50.945 33.986,51.152 45.95,55.793 50.739,50.747 		"/>
		<polygon fill="#939393" points="50.764,55.221 50.739,50.747 45.95,55.793 46.855,56.144 		"/>
		<polygon opacity="0.5" fill="#68696A" points="50.764,55.221 50.739,50.747 45.95,55.793 46.855,56.144 		"/>
	</g>
	<g>
		
			<rect x="67.325" y="45.4" transform="matrix(1 -0.0066 0.0066 1 -0.2969 0.4481)" opacity="0.5" fill="#68696A" width="1.415" height="0"/>
		<g>
			<polygon fill="#A4A1A1" points="43.954,57.896 45.95,55.793 33.986,51.152 33.756,50.945 33.773,53.312 34.003,53.49 
				42.812,56.684 34.007,57.073 33.799,57.036 33.816,59.395 34.044,59.395 			"/>
			<polygon fill="#787878" points="43.928,57.94 50.739,56.913 50.764,55.221 46.83,56.126 45.924,55.762 			"/>
		</g>
		<g>
			<path opacity="0.5" fill="#434343" d="M67.325,45.404L67.325,45.404L55.74,45.478l-5.001,5.269l0.025,4.474l0.23-0.054
				l4.801-0.194c0-3.689,0-9.495,0-9.495L67.325,45.404z"/>
		</g>
		<path fill="#EFEFEF" d="M68.794,45.395l-0.055,0L55.794,56.598c0,0.015,0,0.034,0,0.047L68.794,45.395z"/>
	</g>
	<polygon fill="#AEADAE" points="50.739,56.913 51.029,56.864 55.769,56.645 55.769,54.973 50.968,55.167 50.739,55.221 	"/>
	<path fill="#C54635" d="M49.854,24.964c0,2.001-1.404,5.125-2.416,6.716c-2.51,3.948-4.059,6.754-4.695,11.792
		c-0.201,1.588-0.164,2.814-0.639,2.755c-0.475-0.059-0.482-1.393-0.66-2.703c-0.68-5.025-2.291-7.557-4.488-11.589
		c-0.941-1.724-2.602-4.879-2.602-6.972c0-4.043,3.469-7.322,7.75-7.322C46.383,17.642,49.854,20.921,49.854,24.964z"/>
	<circle fill="#883429" cx="42.105" cy="25.538" r="2.854"/>
</g>
</svg>
