<?xml version="1.0" encoding="utf-8"?>
<!-- Generator: Adobe Illustrator 16.0.4, SVG Export Plug-In . SVG Version: 6.00 Build 0)  -->
<!DOCTYPE svg PUBLIC "-//W3C//DTD SVG 1.1//EN" "http://www.w3.org/Graphics/SVG/1.1/DTD/svg11.dtd">
<svg version="1.1" id="Layer_1" xmlns="http://www.w3.org/2000/svg" xmlns:xlink="http://www.w3.org/1999/xlink" x="0px" y="0px"
	 width="325.836px" height="149.214px" viewBox="0 0 325.836 149.214" enable-background="new 0 0 325.836 149.214"
	 xml:space="preserve">
<g>
	<rect x="119.804" y="31.931" fill="#B7B7B7" width="82.545" height="82.645"/>
	<rect x="120.932" y="33.076" fill="#CCCCCE" width="80.167" height="80"/>
	
		<linearGradient id="SVGID_1_" gradientUnits="userSpaceOnUse" x1="160.8296" y1="77.439" x2="194.8396" y2="37.5232" gradientTransform="matrix(1 0 0 -1 0 150.2139)">
		<stop  offset="0" style="stop-color:#414040"/>
		<stop  offset="0.9146" style="stop-color:#000000;stop-opacity:0"/>
	</linearGradient>
	<polygon fill="url(#SVGID_1_)" points="135.182,88.91 156.265,113.076 201.099,113.076 201.099,76.076 186.849,57.076 	"/>
	<g>
		<rect x="135.182" y="57.076" fill="#F0EEEE" width="51.667" height="31.833"/>
		<polygon fill="#E8E8E8" points="186.682,88.91 161.015,69.909 135.348,88.91 		"/>
		<polygon fill="#A4A1A1" points="135.348,57.076 161.015,81.994 186.682,57.076 		"/>
		<polygon fill="#DFDFDF" points="135.348,57.076 161.015,76.826 186.682,57.076 		"/>
	</g>
</g>
<g>
	<rect x="211.946" y="31.931" fill="#B7B7B7" width="82.545" height="82.645"/>
	<rect x="213.075" y="33.076" fill="#CCCCCE" width="80.166" height="80"/>
	
		<linearGradient id="SVGID_2_" gradientUnits="userSpaceOnUse" x1="253.7866" y1="78.1343" x2="287.7961" y2="38.2191" gradientTransform="matrix(1 0 0 -1 0 150.2139)">
		<stop  offset="0" style="stop-color:#414040"/>
		<stop  offset="0.9146" style="stop-color:#000000;stop-opacity:0"/>
	</linearGradient>
	<polygon fill="url(#SVGID_2_)" points="227.325,88.91 248.407,113.076 293.241,113.076 293.241,76.076 280.741,55.826 	"/>
	<polygon fill="#F0EEEE" points="227.491,52.326 245.741,55.826 262.741,52.326 280.741,55.826 280.741,77.326 267.741,88.576 
		263.069,88.744 245.991,91.326 227.491,88.326 	"/>
	<polygon fill="#A4A1A1" points="245.741,55.826 245.991,91.326 262.948,88.744 262.741,52.326 	"/>
	<g>
		<polygon fill="#BABBBB" points="229.511,54.826 243.15,57.608 253.219,68.826 231.76,86.326 229.511,85.966 		"/>
		<polygon fill="#BABBBB" points="235.749,87.173 241.95,82.326 245.95,85.421 254.758,88.615 245.954,89.003 		"/>
		<polygon fill="#BABBBB" points="247.491,57.513 262.762,54.513 269.95,55.951 255.991,66.409 247.491,60.159 		"/>
		<polygon fill="#BABBBB" points="243.773,81.136 273.575,56.701 279.282,57.888 279.282,77.326 267.741,86.903 262.94,87.098 
			258.801,88.076 245.932,83.083 		"/>
	</g>
	<polygon opacity="0.5" fill="#68696A" enable-background="new    " points="267.685,88.576 263.069,88.744 255.967,89.755 
		267.685,77.41 280.685,77.326 	"/>
	<path fill="#EFEFEF" d="M267.741,88.576c0-1.332,0-11.166,0-11.166l13-0.084L267.741,88.576z"/>
	<path fill="#C54635" d="M262.094,58.147c0,2.001-1.404,5.125-2.416,6.716c-2.51,3.948-4.059,6.754-4.695,11.793
		c-0.201,1.588-0.165,2.812-0.639,2.754c-0.475-0.059-0.482-1.393-0.66-2.703c-0.68-5.024-2.291-7.557-4.488-11.588
		c-0.941-1.724-2.602-4.879-2.602-6.972c0-4.043,3.469-7.322,7.75-7.322C258.624,50.826,262.094,54.104,262.094,58.147z"/>
	<circle fill="#883429" cx="254.344" cy="58.722" r="2.854"/>
</g>
<rect x="27.84" y="31.931" fill="#B7B7B7" width="82.545" height="82.645"/>
<rect x="28.968" y="33.076" fill="#CCCCCE" width="80.167" height="80"/>
<linearGradient id="SVGID_3_" gradientUnits="userSpaceOnUse" x1="60.6152" y1="93.1909" x2="105.0098" y2="41.0871" gradientTransform="matrix(1 0 0 -1 0 150.2139)">
	<stop  offset="0" style="stop-color:#414040"/>
	<stop  offset="0.9146" style="stop-color:#000000;stop-opacity:0"/>
</linearGradient>
<path fill="url(#SVGID_3_)" d="M55.091,100.019l12.959,13.057h41.083V69.909L91.872,44.23c0,0-5.836-5.933-15.563-5.591
	l3.332,15.395l-24.474,0.169L55.091,100.019z"/>
<path fill="#F0EEEE" d="M79.992,50.773H57.583c-1.898,0-3.437,1.539-3.437,3.437v43.204c0,1.897,1.539,3.437,3.437,3.437h22.409
	c1.898,0,3.437-1.539,3.437-3.437V54.209C83.429,52.312,81.891,50.773,79.992,50.773z M68.788,98.982
	c-1.227,0-2.222-0.995-2.222-2.223c0-1.227,0.995-2.221,2.222-2.221c1.228,0,2.223,0.994,2.223,2.221
	C71.011,97.987,70.015,98.982,68.788,98.982z M80.422,91.792H57.153V57.019h23.269V91.792z"/>
<g>
	<path fill="#F0EEEE" d="M79.61,47.051c4.081,0,7.4,3.319,7.4,7.399c0,0.558-0.067,1.1-0.185,1.624l3.016,0.68
		c0.168-0.743,0.264-1.511,0.264-2.303c0-5.787-4.708-10.494-10.495-10.494c-0.735,0-1.452,0.077-2.144,0.222l0.632,3.03
		C78.586,47.106,79.091,47.051,79.61,47.051z"/>
	<path fill="#F0EEEE" d="M79.61,41.392c7.201,0,13.059,5.858,13.059,13.058c0,0.985-0.119,1.942-0.327,2.866l3.018,0.678
		c0.257-1.142,0.404-2.325,0.404-3.544c0-8.907-7.246-16.153-16.154-16.153c-1.131,0-2.235,0.119-3.301,0.341l0.632,3.03
		C77.803,41.488,78.695,41.392,79.61,41.392z"/>
</g>
<polygon fill="#F0EEEE" points="227.491,52.009 245.741,55.509 262.74,52.009 280.74,55.509 280.74,77.009 267.74,88.258 
	263.07,88.424 245.991,91.008 227.491,88.008 "/>
<polygon fill="#BABBBB" points="243.151,57.291 229.512,54.509 229.512,85.647 231.761,86.008 245.648,74.683 245.543,59.957 "/>
<polygon fill="#BABBBB" points="241.952,82.008 235.75,86.856 245.747,88.649 245.72,84.924 "/>
<polygon fill="#BABBBB" points="269.949,55.634 262.764,54.195 262.525,54.242 262.564,61.166 "/>
<polygon fill="#BABBBB" points="243.776,80.818 245.704,82.557 245.68,79.255 "/>
<polygon fill="#B2B3B3" points="262.564,61.166 255.991,66.091 247.491,59.841 247.491,57.195 262.525,54.242 262.514,52.009 
	245.513,55.509 245.543,59.957 253.22,68.509 245.648,74.683 245.68,79.255 262.59,65.392 "/>
<polygon fill="#848484" points="245.543,59.957 245.648,74.683 253.22,68.509 "/>
<polygon fill="#848484" points="254.76,88.297 245.95,85.102 245.72,84.924 245.747,88.649 245.954,88.686 "/>
<polygon fill="#848484" points="247.491,59.841 255.991,66.091 262.564,61.166 262.525,54.242 247.491,57.195 "/>
<g>
	<polygon fill="#BABBBB" points="267.687,77.091 279.271,77.017 279.281,77.009 279.281,57.57 273.574,56.384 262.59,65.392 
		262.685,82.36 	"/>
	<polygon fill="#848484" points="262.59,65.392 245.68,79.255 245.704,82.557 245.933,82.764 257.896,87.407 262.685,82.36 	"/>
	<polygon fill="#939393" points="262.71,86.834 262.685,82.36 257.896,87.407 258.803,87.756 	"/>
	<polygon opacity="0.5" fill="#68696A" enable-background="new    " points="262.71,86.834 262.685,82.36 257.896,87.407 
		258.803,87.756 	"/>
</g>
<g>
	<polygon opacity="0.5" fill="#68696A" enable-background="new    " points="279.275,77.017 280.689,77.009 280.689,77.009 	"/>
	<g>
		<polygon fill="#A4A1A1" points="255.901,89.508 257.896,87.407 245.933,82.764 245.704,82.557 245.72,84.924 245.95,85.102 
			254.76,88.297 245.954,88.686 245.747,88.649 245.763,91.008 245.991,91.008 		"/>
		<polygon fill="#787878" points="255.875,89.553 262.685,88.526 262.71,86.834 258.778,87.739 257.872,87.375 		"/>
	</g>
	<g>
		<path opacity="0.5" fill="#434343" enable-background="new    " d="M279.271,77.017L279.271,77.017l-11.584,0.074l-5.002,5.271
			l0.025,4.473l0.229-0.053l4.802-0.195c0-3.688,0-9.493,0-9.493L279.271,77.017z"/>
	</g>
	<path fill="#EFEFEF" d="M280.74,77.009h-0.055L267.74,88.211c0,0.014,0,0.033,0,0.047L280.74,77.009z"/>
</g>
<polygon fill="#AEADAE" points="262.685,88.526 262.976,88.477 267.717,88.258 267.717,86.586 262.914,86.78 262.685,86.834 "/>
<path fill="#C54635" d="M261.801,56.577c0,2.001-1.404,5.125-2.416,6.716c-2.51,3.948-4.059,6.754-4.695,11.792
	c-0.201,1.588-0.164,2.815-0.639,2.754c-0.475-0.059-0.48-1.393-0.66-2.701c-0.68-5.025-2.291-7.558-4.488-11.59
	c-0.941-1.724-2.602-4.879-2.602-6.972c0-4.043,3.469-7.322,7.75-7.322C258.331,49.255,261.801,52.534,261.801,56.577z"/>
<circle fill="#883429" cx="254.053" cy="57.151" r="2.854"/>
</svg>
