<?xml version="1.0" encoding="utf-8"?>
<!-- Generator: Adobe Illustrator 16.0.4, SVG Export Plug-In . SVG Version: 6.00 Build 0)  -->
<!DOCTYPE svg PUBLIC "-//W3C//DTD SVG 1.1//EN" "http://www.w3.org/Graphics/SVG/1.1/DTD/svg11.dtd">
<svg version="1.1" id="Layer_1" xmlns="http://www.w3.org/2000/svg" xmlns:xlink="http://www.w3.org/1999/xlink" x="0px" y="0px"
	 width="626px" height="267px" viewBox="0 0 626 267" enable-background="new 0 0 626 267" xml:space="preserve">
<g>
	
		<linearGradient id="SVGID_1_" gradientUnits="userSpaceOnUse" x1="117.6743" y1="642.874" x2="41.3517" y2="566.5515" gradientTransform="matrix(1 0 0 1 0 -524)">
		<stop  offset="0.1926" style="stop-color:#303030"/>
		<stop  offset="1" style="stop-color:#4E4D4D"/>
	</linearGradient>
	<rect x="37.122" y="38.272" fill="url(#SVGID_1_)" width="82.545" height="82.645"/>
	<rect x="38.25" y="39.417" fill="#252525" width="80.167" height="80"/>
	
		<linearGradient id="SVGID_2_" gradientUnits="userSpaceOnUse" x1="78.147" y1="603.1152" x2="112.1574" y2="643.0318" gradientTransform="matrix(1 0 0 1 0 -524)">
		<stop  offset="0.3386" style="stop-color:#151515"/>
		<stop  offset="0.9146" style="stop-color:#000000;stop-opacity:0"/>
	</linearGradient>
	<polygon fill="url(#SVGID_2_)" points="52.5,95.25 73.583,119.417 118.417,119.417 118.417,82.417 104.167,63.417 	"/>
	<g>
		<rect x="52.5" y="63.417" fill="#F0EEEE" width="51.667" height="31.833"/>
		<polygon fill="#DCD9D9" points="104,95.25 78.333,76.25 52.666,95.25 		"/>
		<polygon fill="#A4A1A1" points="52.666,63.417 78.333,88.334 104,63.417 		"/>
		<polygon fill="#DFDFDF" points="52.666,63.417 78.333,83.167 104,63.417 		"/>
	</g>
</g>
<g>
	
		<linearGradient id="SVGID_3_" gradientUnits="userSpaceOnUse" x1="211.8154" y1="642.874" x2="135.4935" y2="566.5521" gradientTransform="matrix(1 0 0 1 0 -524)">
		<stop  offset="0.1926" style="stop-color:#303030"/>
		<stop  offset="1" style="stop-color:#4E4D4D"/>
	</linearGradient>
	<rect x="131.264" y="38.272" fill="url(#SVGID_3_)" width="82.545" height="82.645"/>
	<rect x="132.392" y="39.417" fill="#252525" width="80.167" height="80"/>
	
		<linearGradient id="SVGID_4_" gradientUnits="userSpaceOnUse" x1="173.1045" y1="602.4199" x2="207.1161" y2="642.3378" gradientTransform="matrix(1 0 0 1 0 -524)">
		<stop  offset="0.2885" style="stop-color:#151515"/>
		<stop  offset="0.9146" style="stop-color:#000000;stop-opacity:0"/>
	</linearGradient>
	<polygon fill="url(#SVGID_4_)" points="146.642,95.25 167.725,119.417 212.559,119.417 212.559,82.417 200.058,62.167 	"/>
	<polygon fill="#DFDFDF" points="146.808,58.667 165.058,62.167 182.058,58.667 200.058,62.167 200.058,83.667 187.058,94.917 
		182.387,95.084 165.308,97.667 146.808,94.667 	"/>
	<polygon fill="#A4A1A1" points="165.058,62.167 165.308,97.667 182.266,95.084 182.058,58.667 	"/>
	<g>
		<polygon fill="#BABBBB" points="148.829,61.167 162.468,63.95 172.537,75.167 151.079,92.667 148.829,92.307 		"/>
		<polygon fill="#BABBBB" points="155.066,93.515 161.267,88.667 165.267,91.762 174.076,94.956 165.272,95.345 		"/>
		<polygon fill="#BABBBB" points="166.809,63.854 182.08,60.854 189.267,62.292 175.309,72.75 166.809,66.5 		"/>
		<polygon fill="#BABBBB" points="163.091,87.477 192.892,63.042 198.6,64.229 198.6,83.667 187.058,93.245 182.258,93.439 
			178.119,94.416 165.25,89.424 		"/>
	</g>
	<polygon opacity="0.5" fill="#68696A" enable-background="new    " points="187.003,94.917 182.387,95.084 175.286,96.097 
		187.003,83.75 200.003,83.667 	"/>
	<path fill="#EFEFEF" d="M187.058,94.917c0-1.333,0-11.167,0-11.167l13-0.083L187.058,94.917z"/>
	<path fill="#C54635" d="M181.412,64.489c0,2.001-1.405,5.125-2.416,6.716c-2.51,3.948-4.059,6.754-4.695,11.792
		c-0.201,1.588-0.165,2.814-0.639,2.755s-0.482-1.393-0.66-2.703c-0.68-5.025-2.292-7.557-4.489-11.589
		c-0.94-1.724-2.602-4.879-2.602-6.972c0-4.043,3.47-7.322,7.75-7.322C177.942,57.167,181.412,60.445,181.412,64.489z"/>
	<circle fill="#883429" cx="173.662" cy="65.063" r="2.854"/>
</g>
<g>
	
		<linearGradient id="SVGID_5_" gradientUnits="userSpaceOnUse" x1="305.9585" y1="642.873" x2="229.6372" y2="566.5516" gradientTransform="matrix(1 0 0 1 0 -524)">
		<stop  offset="0.1926" style="stop-color:#303030"/>
		<stop  offset="1" style="stop-color:#4E4D4D"/>
	</linearGradient>
	<rect x="225.407" y="38.272" fill="url(#SVGID_5_)" width="82.545" height="82.645"/>
	<rect x="226.535" y="39.417" fill="#252525" width="80.167" height="80"/>
	
		<linearGradient id="SVGID_6_" gradientUnits="userSpaceOnUse" x1="253.5107" y1="587.1309" x2="306.8149" y2="649.6912" gradientTransform="matrix(1 0 0 1 0 -524)">
		<stop  offset="0.5097" style="stop-color:#151515"/>
		<stop  offset="1" style="stop-color:#000000;stop-opacity:0"/>
	</linearGradient>
	<path fill="url(#SVGID_6_)" d="M244.289,93.334c0,0,0.413,3.833,2.563,5.931c1.27,1.239,20.555,20.152,20.555,20.152h39.294v-37
		l-18.179-22.178c0,0-2.821-3.889-12.654-3.889c-6.533,0-10.438,0-18.501,0s-13.109,6.601-13.109,11.655
		C244.258,73.059,244.289,93.334,244.289,93.334z"/>
	<g>
		<g>
			<path fill="#DBDADA" d="M280.681,56.35h-24.583v10.681H254.2V56.35h-0.067c-0.531,0-1.052,0.043-1.56,0.123v10.558h-1.898V56.974
				c-0.569,0.212-1.113,0.476-1.627,0.784v9.272h-1.897v-7.789c-1.787,1.787-2.893,4.256-2.893,6.983v3.155h15.159
				c2.192-1.747,4.969-2.794,7.99-2.794c3.022,0,5.798,1.047,7.991,2.794h15.159v-3.155C290.556,60.77,286.134,56.35,280.681,56.35z
				 M286.375,65.706c0,0.696-0.564,1.26-1.26,1.26h-4.74c-0.696,0-1.26-0.563-1.26-1.26V61c0-0.696,0.562-1.259,1.26-1.259h4.74
				c0.696,0,1.26,0.562,1.26,1.259V65.706z"/>
			<path fill="#DBDADA" d="M280.238,79.417c0,7.087-5.745,12.831-12.831,12.831c-7.086,0-12.831-5.744-12.831-12.831
				c0-3.089,1.092-5.922,2.911-8.137h-13.229v21.329c0,5.455,4.422,9.875,9.875,9.875h26.548c5.453,0,9.875-4.42,9.875-9.875V71.28
				h-13.229C279.146,73.495,280.238,76.328,280.238,79.417z"/>
		</g>
		<path fill="#DBDADA" d="M267.407,90.157c-5.924,0-10.744-4.821-10.744-10.745c0-5.923,4.82-10.743,10.744-10.743
			c5.924,0,10.744,4.82,10.744,10.743C278.151,85.336,273.331,90.157,267.407,90.157z M267.407,70.297
			c-5.026,0-9.116,4.089-9.116,9.115c0,5.028,4.09,9.118,9.116,9.118c5.027,0,9.117-4.089,9.117-9.118
			C276.523,74.386,272.434,70.297,267.407,70.297z"/>
	</g>
</g>
<g>
	
		<linearGradient id="SVGID_7_" gradientUnits="userSpaceOnUse" x1="400.0996" y1="642.8721" x2="323.7795" y2="566.5519" gradientTransform="matrix(1 0 0 1 0 -524)">
		<stop  offset="0.1926" style="stop-color:#303030"/>
		<stop  offset="1" style="stop-color:#4E4D4D"/>
	</linearGradient>
	<rect x="319.549" y="38.272" fill="url(#SVGID_7_)" width="82.545" height="82.645"/>
	<rect x="320.677" y="39.417" fill="#252525" width="80.167" height="80"/>
	
		<linearGradient id="SVGID_8_" gradientUnits="userSpaceOnUse" x1="355.9473" y1="591.0703" x2="403.4778" y2="646.8545" gradientTransform="matrix(1 0 0 1 0 -524)">
		<stop  offset="0.5097" style="stop-color:#151515"/>
		<stop  offset="1" style="stop-color:#000000;stop-opacity:0"/>
	</linearGradient>
	<path fill="url(#SVGID_8_)" d="M354.3,102.483l19.117,16.934h27.427v-37L372.31,55.132c0,0-2.673,0-5.506,0
		c-8.062,0-12.503,6.17-12.503,11.225S354.3,102.483,354.3,102.483z"/>
	
		<linearGradient id="SVGID_9_" gradientUnits="userSpaceOnUse" x1="351.1904" y1="602.7432" x2="355.7446" y2="608.0883" gradientTransform="matrix(1 0 0 1 0 -524)">
		<stop  offset="0.5097" style="stop-color:#151515"/>
		<stop  offset="1" style="stop-color:#000000;stop-opacity:0"/>
	</linearGradient>
	<polygon fill="url(#SVGID_9_)" points="349.456,79.55 354.3,79.55 354.3,84.772 	"/>
	<path id="Facebook_1_" fill="#DBDADA" d="M354.3,64.668c0,1.24,0,6.778,0,6.778h-4.967v8.29h4.967v22.747h10.202V79.737h6.845
		c0,0,0.644-3.975,0.952-8.321c-0.891,0-7.758,0-7.758,0s0-4.822,0-5.667c0-0.847,1.112-1.986,2.212-1.986c1.097,0,3.414,0,5.558,0
		c0-1.129,0-5.028,0-8.63c-2.861,0-6.12,0-7.557,0C354.047,55.132,354.3,63.43,354.3,64.668z"/>
</g>
<g>
	
		<linearGradient id="SVGID_10_" gradientUnits="userSpaceOnUse" x1="494.2412" y1="642.8721" x2="417.9199" y2="566.5507" gradientTransform="matrix(1 0 0 1 0 -524)">
		<stop  offset="0.1926" style="stop-color:#303030"/>
		<stop  offset="1" style="stop-color:#4E4D4D"/>
	</linearGradient>
	<rect x="413.691" y="38.272" fill="url(#SVGID_10_)" width="82.545" height="82.645"/>
	<rect x="414.819" y="39.417" fill="#252525" width="80.167" height="80"/>
	
		<linearGradient id="SVGID_11_" gradientUnits="userSpaceOnUse" x1="451.6006" y1="600.9355" x2="493.2797" y2="649.8523" gradientTransform="matrix(1 0 0 1 0 -524)">
		<stop  offset="0.5097" style="stop-color:#151515"/>
		<stop  offset="1" style="stop-color:#000000;stop-opacity:0"/>
	</linearGradient>
	<path fill="url(#SVGID_11_)" d="M429.887,96.893l25.018,22.524h40.084v-37l-19.504-18.605c0,0-6.663,5.355-14.413,2.48
		c-7.562-2.804-6.974,8.07-7,13.125C453.944,101.215,429.887,96.893,429.887,96.893z"/>
	<path fill="#DBDADA" d="M476.777,67.619c-1.728,0.765-3.579,1.282-5.525,1.515c1.986-1.19,3.512-3.076,4.23-5.322
		c-1.859,1.103-3.918,1.903-6.109,2.334c-1.755-1.869-4.255-3.037-7.021-3.037c-5.312,0-9.619,4.307-9.619,9.62
		c0,0.754,0.086,1.488,0.25,2.191c-7.996-0.4-15.084-4.231-19.828-10.051c-0.829,1.421-1.305,3.073-1.305,4.837
		c0,3.336,1.698,6.281,4.279,8.007c-1.576-0.05-3.061-0.483-4.355-1.203c0,0.04-0.001,0.08-0.001,0.12
		c0,4.661,3.313,8.55,7.718,9.434c-0.811,0.22-1.658,0.337-2.535,0.337c-0.62,0-1.223-0.061-1.812-0.172
		c1.226,3.821,4.776,6.603,8.985,6.681c-3.291,2.58-7.438,4.117-11.947,4.117c-0.773,0-1.542-0.044-2.295-0.134
		c4.258,2.729,9.314,4.322,14.747,4.322c17.695,0,27.371-14.659,27.371-27.371c0-0.417-0.01-0.832-0.028-1.244
		C473.856,71.243,475.488,69.549,476.777,67.619z"/>
</g>
<g>
	
		<linearGradient id="SVGID_12_" gradientUnits="userSpaceOnUse" x1="588.3848" y1="642.873" x2="512.064" y2="566.5522" gradientTransform="matrix(1 0 0 1 0 -524)">
		<stop  offset="0.1926" style="stop-color:#303030"/>
		<stop  offset="1" style="stop-color:#4E4D4D"/>
	</linearGradient>
	<rect x="507.834" y="38.272" fill="url(#SVGID_12_)" width="82.544" height="82.645"/>
	<rect x="508.961" y="39.417" fill="#252525" width="80.167" height="80"/>
	
		<linearGradient id="SVGID_13_" gradientUnits="userSpaceOnUse" x1="539.8848" y1="603.1553" x2="583.0188" y2="653.7794" gradientTransform="matrix(1 0 0 1 0 -524)">
		<stop  offset="0.5097" style="stop-color:#151515"/>
		<stop  offset="1" style="stop-color:#000000;stop-opacity:0"/>
	</linearGradient>
	<path fill="url(#SVGID_13_)" d="M527.508,97.583c0,0,0.412,3.833,2.562,5.931c1.27,1.239,19.764,15.903,19.764,15.903h39.294
		v-17.598l-19.606-23.792c0,0-1.393-2.275-11.227-2.275c-6.533,0-10.438,0-18.501,0c-8.062,0-12.317,10.85-12.317,15.905
		C527.477,96.711,527.508,97.583,527.508,97.583z"/>
	<g>
		<g>
			<polygon id="SVGID_14_" fill="#161616" points="541.113,52.319 539.269,60.034 539.08,60.034 537.146,52.319 534.143,52.319 
				537.691,63.969 537.691,71.619 540.672,71.619 540.672,63.611 544.141,52.319 			"/>
		</g>
		<g>
			<g>
				<defs>
					<polygon id="SVGID_15_" points="541.113,52.319 539.269,60.034 539.08,60.034 537.146,52.319 534.143,52.319 537.691,63.969 
						537.691,71.619 540.672,71.619 540.672,63.611 544.141,52.319 					"/>
				</defs>
				<clipPath id="SVGID_17_">
					<use xlink:href="#SVGID_15_"  overflow="visible"/>
				</clipPath>
				<rect x="534.143" y="52.319" clip-path="url(#SVGID_17_)" fill="#161616" width="9.998" height="19.3"/>
			</g>
		</g>
	</g>
	<g>
		<g>
			<path id="SVGID_16_" fill="#161616" d="M547.014,69.192c-0.188-0.213-0.283-0.517-0.283-0.91v-7.753
				c0-0.312,0.104-0.562,0.305-0.755c0.201-0.188,0.464-0.283,0.787-0.283c0.348,0,0.631,0.096,0.846,0.283
				c0.215,0.193,0.325,0.443,0.325,0.755v7.753c0,0.382-0.104,0.683-0.314,0.902c-0.213,0.217-0.498,0.327-0.854,0.327
				C547.471,69.512,547.203,69.404,547.014,69.192 M545.076,58c-0.713,0.655-1.072,1.533-1.072,2.634l0.004,7.384
				c0,1.207,0.346,2.17,1.041,2.886c0.691,0.717,1.621,1.074,2.78,1.074c1.199,0,2.145-0.348,2.832-1.039
				c0.683-0.695,1.028-1.65,1.028-2.873v-7.351c0-1.086-0.352-1.973-1.049-2.66c-0.699-0.689-1.6-1.035-2.691-1.035
				C546.746,57.021,545.787,57.35,545.076,58"/>
		</g>
		<g>
			<g>
				<defs>
					<path id="SVGID_19_" d="M547.014,69.192c-0.188-0.213-0.283-0.517-0.283-0.91v-7.753c0-0.312,0.104-0.562,0.305-0.755
						c0.201-0.188,0.464-0.283,0.787-0.283c0.348,0,0.631,0.096,0.846,0.283c0.215,0.193,0.325,0.443,0.325,0.755v7.753
						c0,0.382-0.104,0.683-0.314,0.902c-0.213,0.217-0.498,0.327-0.854,0.327C547.471,69.512,547.203,69.404,547.014,69.192
						 M545.076,58c-0.713,0.655-1.072,1.533-1.072,2.634l0.004,7.384c0,1.207,0.346,2.17,1.041,2.886
						c0.691,0.717,1.621,1.074,2.78,1.074c1.199,0,2.145-0.348,2.832-1.039c0.683-0.695,1.028-1.65,1.028-2.873v-7.351
						c0-1.086-0.352-1.973-1.049-2.66c-0.699-0.689-1.6-1.035-2.691-1.035C546.746,57.021,545.787,57.35,545.076,58"/>
				</defs>
				<clipPath id="SVGID_21_">
					<use xlink:href="#SVGID_19_"  overflow="visible"/>
				</clipPath>
				<rect x="544.004" y="57.021" clip-path="url(#SVGID_21_)" fill="#161616" width="7.688" height="14.958"/>
			</g>
		</g>
	</g>
	<g>
		<g>
			<path id="SVGID_18_" fill="#161616" d="M558.844,57.381v10.806c-0.252,0.313-0.521,0.568-0.814,0.768
				c-0.301,0.2-0.545,0.3-0.739,0.3c-0.249,0-0.427-0.075-0.537-0.227c-0.112-0.15-0.167-0.393-0.167-0.732V57.381h-2.645v11.901
				c0,0.847,0.149,1.482,0.461,1.906c0.311,0.422,0.771,0.634,1.384,0.634c0.498,0,1.009-0.151,1.538-0.454
				c0.525-0.3,1.035-0.744,1.521-1.322v1.573h2.647V57.381H558.844z"/>
		</g>
		<g>
			<g>
				<defs>
					<path id="SVGID_23_" d="M558.844,57.381v10.806c-0.252,0.313-0.521,0.568-0.814,0.768c-0.301,0.2-0.545,0.3-0.739,0.3
						c-0.249,0-0.427-0.075-0.537-0.227c-0.112-0.15-0.167-0.393-0.167-0.732V57.381h-2.645v11.901c0,0.847,0.149,1.482,0.461,1.906
						c0.311,0.422,0.771,0.634,1.384,0.634c0.498,0,1.009-0.151,1.538-0.454c0.525-0.3,1.035-0.744,1.521-1.322v1.573h2.647V57.381
						H558.844z"/>
				</defs>
				<clipPath id="SVGID_25_">
					<use xlink:href="#SVGID_23_"  overflow="visible"/>
				</clipPath>
				<rect x="553.939" y="57.381" clip-path="url(#SVGID_25_)" fill="#161616" width="7.552" height="14.441"/>
			</g>
		</g>
	</g>
	<path opacity="0.8" fill="#161616" enable-background="new    " d="M540.004,80.034h-9.146v2.803h3.083v16.499h2.979V82.837h3.084
		V80.034z M544.876,95.904c-0.245,0.312-0.517,0.566-0.817,0.766c-0.3,0.202-0.545,0.301-0.734,0.301
		c-0.248,0-0.43-0.075-0.537-0.227c-0.115-0.152-0.168-0.396-0.168-0.734V85.098h-2.646v11.9c0,0.849,0.15,1.481,0.465,1.906
		c0.312,0.424,0.771,0.635,1.385,0.635c0.494,0,1.008-0.152,1.537-0.452c0.523-0.303,1.031-0.744,1.521-1.325v1.574h2.647V85.098
		h-2.647v10.806H544.876z M555.133,84.919c-0.411,0-0.814,0.112-1.219,0.339c-0.398,0.225-0.775,0.555-1.135,0.99v-6.214h-2.672
		v19.302h2.672V98.24c0.348,0.434,0.725,0.752,1.127,0.959c0.41,0.212,0.869,0.315,1.387,0.315c0.785,0,1.383-0.267,1.801-0.807
		c0.414-0.537,0.62-1.312,0.62-2.323v-7.899c0-1.161-0.222-2.047-0.661-2.656C556.611,85.221,555.971,84.919,555.133,84.919
		 M554.99,95.995c0,0.456-0.076,0.783-0.23,0.983c-0.147,0.2-0.391,0.299-0.715,0.299c-0.225,0-0.436-0.053-0.638-0.155
		c-0.202-0.1-0.411-0.267-0.628-0.499v-8.871c0.181-0.198,0.359-0.34,0.547-0.433c0.184-0.091,0.369-0.142,0.56-0.142
		c0.356,0,0.63,0.126,0.818,0.375c0.189,0.251,0.286,0.614,0.286,1.096V95.995z M567.498,92.548v-3.624
		c0-1.351-0.324-2.386-0.977-3.105c-0.65-0.72-1.58-1.079-2.791-1.079c-1.187,0-2.148,0.386-2.898,1.166
		c-0.749,0.777-1.123,1.783-1.123,3.019v6.392c0,1.372,0.342,2.446,1.023,3.231c0.682,0.781,1.611,1.172,2.798,1.172
		c1.314,0,2.31-0.367,2.973-1.104c0.663-0.739,0.995-1.839,0.995-3.298v-1.069h-2.725v0.991c0,0.839-0.086,1.376-0.264,1.621
		c-0.174,0.245-0.481,0.366-0.924,0.366c-0.419,0-0.717-0.142-0.891-0.432c-0.18-0.29-0.264-0.81-0.264-1.556V92.55L567.498,92.548
		L567.498,92.548z M562.436,88.898c0-0.598,0.094-1.023,0.275-1.282c0.182-0.256,0.484-0.385,0.905-0.385
		c0.407,0,0.693,0.129,0.881,0.385c0.184,0.259,0.276,0.685,0.276,1.282v1.442h-2.34L562.436,88.898L562.436,88.898z"/>
	<g>
		<g>
			<g>
				<polygon id="SVGID_20_" fill="#DCDBDB" points="539.973,51.322 538.128,59.037 537.938,59.037 536.006,51.322 533.001,51.322 
					536.551,62.972 536.551,70.623 539.531,70.623 539.531,62.615 543,51.322 				"/>
			</g>
			<g>
				<g>
					<defs>
						<polygon id="SVGID_26_" points="539.973,51.322 538.128,59.037 537.938,59.037 536.006,51.322 533.001,51.322 536.551,62.972 
							536.551,70.623 539.531,70.623 539.531,62.615 543,51.322 						"/>
					</defs>
					<clipPath id="SVGID_27_">
						<use xlink:href="#SVGID_26_"  overflow="visible"/>
					</clipPath>
					<rect x="533.001" y="51.322" clip-path="url(#SVGID_27_)" fill="#DCDBDB" width="9.999" height="19.3"/>
				</g>
			</g>
		</g>
		<g>
			<g>
				<path id="SVGID_22_" fill="#DCDBDB" d="M545.873,68.196c-0.189-0.215-0.283-0.518-0.283-0.909v-7.754
					c0-0.312,0.1-0.563,0.303-0.754c0.201-0.188,0.463-0.283,0.787-0.283c0.35,0,0.631,0.095,0.847,0.283
					c0.216,0.191,0.324,0.442,0.324,0.754v7.754c0,0.382-0.104,0.682-0.312,0.9c-0.214,0.218-0.499,0.329-0.856,0.329
					C546.33,68.516,546.062,68.406,545.873,68.196 M543.935,57.005c-0.713,0.654-1.069,1.533-1.069,2.633l0.004,7.384
					c0,1.208,0.346,2.17,1.041,2.886c0.689,0.717,1.621,1.075,2.779,1.075c1.198,0,2.146-0.348,2.833-1.04
					c0.683-0.694,1.026-1.65,1.026-2.872V59.72c0-1.086-0.35-1.974-1.047-2.661c-0.701-0.689-1.6-1.035-2.693-1.035
					C545.605,56.024,544.646,56.353,543.935,57.005"/>
			</g>
			<g>
				<g>
					<defs>
						<path id="SVGID_28_" d="M545.873,68.196c-0.189-0.215-0.283-0.518-0.283-0.909v-7.754c0-0.312,0.1-0.563,0.303-0.754
							c0.201-0.188,0.463-0.283,0.787-0.283c0.35,0,0.631,0.095,0.847,0.283c0.216,0.191,0.324,0.442,0.324,0.754v7.754
							c0,0.382-0.104,0.682-0.312,0.9c-0.214,0.218-0.499,0.329-0.856,0.329C546.33,68.516,546.062,68.406,545.873,68.196
							 M543.935,57.005c-0.713,0.654-1.069,1.533-1.069,2.633l0.004,7.384c0,1.208,0.346,2.17,1.041,2.886
							c0.689,0.717,1.621,1.075,2.779,1.075c1.198,0,2.146-0.348,2.833-1.04c0.683-0.694,1.026-1.65,1.026-2.872V59.72
							c0-1.086-0.35-1.974-1.047-2.661c-0.701-0.689-1.6-1.035-2.693-1.035C545.605,56.024,544.646,56.353,543.935,57.005"/>
					</defs>
					<clipPath id="SVGID_29_">
						<use xlink:href="#SVGID_28_"  overflow="visible"/>
					</clipPath>
					<rect x="542.863" y="56.024" clip-path="url(#SVGID_29_)" fill="#DCDBDB" width="7.686" height="14.958"/>
				</g>
			</g>
		</g>
		<g>
			<g>
				<path id="SVGID_24_" fill="#DCDBDB" d="M557.703,56.386V67.19c-0.251,0.312-0.521,0.569-0.816,0.766
					c-0.299,0.201-0.545,0.302-0.738,0.302c-0.249,0-0.428-0.074-0.536-0.228c-0.112-0.149-0.168-0.393-0.168-0.732V56.386h-2.646
					v11.9c0,0.847,0.152,1.482,0.461,1.907c0.312,0.42,0.774,0.633,1.384,0.633c0.498,0,1.012-0.15,1.539-0.453
					c0.527-0.303,1.034-0.746,1.521-1.323v1.573h2.646V56.386H557.703z"/>
			</g>
			<g>
				<g>
					<defs>
						<path id="SVGID_30_" d="M557.703,56.386V67.19c-0.251,0.312-0.521,0.569-0.816,0.766c-0.299,0.201-0.545,0.302-0.738,0.302
							c-0.249,0-0.428-0.074-0.536-0.228c-0.112-0.149-0.168-0.393-0.168-0.732V56.386h-2.646v11.9c0,0.847,0.152,1.482,0.461,1.907
							c0.312,0.42,0.774,0.633,1.384,0.633c0.498,0,1.012-0.15,1.539-0.453c0.527-0.303,1.034-0.746,1.521-1.323v1.573h2.646V56.386
							H557.703z"/>
					</defs>
					<clipPath id="SVGID_31_">
						<use xlink:href="#SVGID_30_"  overflow="visible"/>
					</clipPath>
					<rect x="552.798" y="56.386" clip-path="url(#SVGID_31_)" fill="#DCDBDB" width="7.552" height="14.44"/>
				</g>
			</g>
		</g>
	</g>
	<g>
		<path fill="#DCDBDB" d="M553.886,87.177c-0.188,0-0.376,0.051-0.56,0.142c-0.188,0.093-0.366,0.235-0.547,0.433v8.871
			c0.217,0.232,0.426,0.399,0.628,0.499c0.202,0.103,0.413,0.155,0.638,0.155c0.324,0,0.565-0.099,0.715-0.299
			c0.154-0.2,0.23-0.527,0.23-0.983v-7.348c0-0.481-0.097-0.845-0.286-1.096C554.516,87.303,554.242,87.177,553.886,87.177z"/>
		<path fill="#DCDBDB" d="M563.616,87.231c-0.421,0-0.726,0.129-0.905,0.385c-0.184,0.259-0.275,0.685-0.275,1.282v1.442h2.34
			v-1.442c0-0.598-0.095-1.023-0.276-1.282C564.312,87.36,564.023,87.231,563.616,87.231z"/>
		<path fill="#DCDBDB" d="M570.811,81.791c0-3.438-2.818-6.226-6.299-6.226c-4.719-0.197-9.539-0.291-14.453-0.291h-0.768
			c-0.258,0-0.514,0-0.772,0c-4.908,0-9.73,0.093-14.452,0.291c-3.479,0-6.297,2.788-6.297,6.226
			c-0.21,2.724-0.301,5.448-0.293,8.169c-0.008,2.724,0.083,5.445,0.293,8.175c0,3.435,2.818,6.222,6.297,6.222
			c4.965,0.214,10.047,0.3,15.227,0.292c5.177,0.008,10.256-0.078,15.221-0.292c3.479,0,6.301-2.787,6.301-6.222
			c0.211-2.729,0.299-5.451,0.294-8.175C571.109,87.239,571.021,84.515,570.811,81.791z M536.92,99.336h-2.979V82.837h-3.083v-2.803
			h9.146v2.803h-3.084V99.336z M547.523,99.336h-2.647v-1.574c-0.487,0.581-0.995,1.022-1.521,1.325
			c-0.529,0.3-1.043,0.452-1.537,0.452c-0.611,0-1.07-0.211-1.383-0.635c-0.314-0.425-0.467-1.058-0.467-1.906v-11.9h2.646V96.01
			c0,0.338,0.053,0.582,0.168,0.734c0.107,0.151,0.289,0.227,0.537,0.227c0.189,0,0.437-0.099,0.734-0.301
			c0.303-0.199,0.572-0.454,0.817-0.766V85.098h2.647v14.238H547.523z M557.714,96.385c0,1.011-0.206,1.786-0.62,2.323
			c-0.418,0.54-1.016,0.807-1.801,0.807c-0.518,0-0.977-0.104-1.387-0.315c-0.402-0.207-0.779-0.525-1.127-0.959v1.096h-2.672
			V80.034h2.672v6.214c0.357-0.435,0.734-0.765,1.135-0.99c0.402-0.227,0.808-0.339,1.219-0.339c0.838,0,1.479,0.302,1.92,0.911
			c0.439,0.609,0.661,1.495,0.661,2.656V96.385L557.714,96.385z M567.498,92.548h-5.062v2.689c0,0.746,0.084,1.266,0.264,1.556
			c0.174,0.29,0.472,0.432,0.891,0.432c0.44,0,0.75-0.121,0.924-0.366c0.178-0.245,0.264-0.782,0.264-1.621v-0.991h2.725v1.069
			c0,1.459-0.332,2.559-0.995,3.298c-0.663,0.738-1.656,1.104-2.973,1.104c-1.187,0-2.116-0.391-2.798-1.172
			c-0.684-0.785-1.023-1.859-1.023-3.231v-6.392c0-1.235,0.374-2.241,1.123-3.019c0.75-0.78,1.714-1.166,2.898-1.166
			c1.211,0,2.141,0.358,2.792,1.079c0.649,0.72,0.976,1.755,0.976,3.105v3.625L567.498,92.548L567.498,92.548z"/>
	</g>
</g>
<g>
	
		<linearGradient id="SVGID_32_" gradientUnits="userSpaceOnUse" x1="117.6738" y1="753.873" x2="41.3512" y2="677.5504" gradientTransform="matrix(1 0 0 1 0 -524)">
		<stop  offset="0.1926" style="stop-color:#303030"/>
		<stop  offset="1" style="stop-color:#4E4D4D"/>
	</linearGradient>
	<rect x="37.122" y="149.271" fill="url(#SVGID_32_)" width="82.545" height="82.646"/>
	<rect x="38.25" y="150.417" fill="#353535" width="80.167" height="80"/>
	
		<linearGradient id="SVGID_33_" gradientUnits="userSpaceOnUse" x1="78.1484" y1="714.1162" x2="120.9568" y2="764.3583" gradientTransform="matrix(1 0 0 1 0 -524)">
		<stop  offset="0.4756" style="stop-color:#151515"/>
		<stop  offset="0.9146" style="stop-color:#000000;stop-opacity:0"/>
	</linearGradient>
	<polygon fill="url(#SVGID_33_)" points="52.5,206.25 73.583,230.417 118.417,230.417 118.417,193.417 104.167,174.417 	"/>
	<g>
		<rect x="52.5" y="174.417" fill="#F4F4F4" width="51.667" height="31.833"/>
		<polygon fill="#EAEAEA" points="104,206.25 78.333,187.25 52.666,206.25 		"/>
		<polygon fill="#A4A1A1" points="52.666,174.417 78.333,199.334 104,174.417 		"/>
		<polygon fill="#FFFFFF" points="52.666,174.417 78.333,194.167 104,174.417 		"/>
	</g>
</g>
<g>
	
		<linearGradient id="SVGID_34_" gradientUnits="userSpaceOnUse" x1="211.8159" y1="753.873" x2="135.494" y2="677.551" gradientTransform="matrix(1 0 0 1 0 -524)">
		<stop  offset="0.1926" style="stop-color:#303030"/>
		<stop  offset="1" style="stop-color:#4E4D4D"/>
	</linearGradient>
	<rect x="131.264" y="149.271" fill="url(#SVGID_34_)" width="82.545" height="82.646"/>
	<rect x="132.392" y="150.417" fill="#353535" width="80.167" height="80"/>
	
		<linearGradient id="SVGID_35_" gradientUnits="userSpaceOnUse" x1="173.1045" y1="713.4199" x2="213.9768" y2="761.3897" gradientTransform="matrix(1 0 0 1 0 -524)">
		<stop  offset="0.4128" style="stop-color:#151515"/>
		<stop  offset="0.9146" style="stop-color:#000000;stop-opacity:0"/>
	</linearGradient>
	<polygon fill="url(#SVGID_35_)" points="146.642,206.25 167.725,230.417 212.559,230.417 212.559,193.417 200.058,173.167 	"/>
	<polygon fill="#FFFFFF" points="146.808,169.667 165.058,173.167 182.058,169.667 200.058,173.167 200.058,194.667 
		187.058,205.917 182.387,206.084 165.308,208.667 146.808,205.667 	"/>
	<polygon fill="#A4A1A1" points="165.058,173.167 165.308,208.667 182.266,206.084 182.058,169.667 	"/>
	<g>
		<polygon fill="#BABBBB" points="148.829,172.167 162.468,174.95 172.537,186.167 151.079,203.667 148.829,203.307 		"/>
		<polygon fill="#BABBBB" points="155.066,204.516 161.267,199.667 165.267,202.762 174.076,205.956 165.272,206.345 		"/>
		<polygon fill="#BABBBB" points="166.809,174.854 182.08,171.854 189.267,173.292 175.309,183.75 166.809,177.5 		"/>
		<polygon fill="#BABBBB" points="163.091,198.477 192.892,174.042 198.6,175.229 198.6,194.667 187.058,204.245 182.258,204.439 
			178.119,205.416 165.25,200.424 		"/>
	</g>
	<polygon opacity="0.5" fill="#68696A" enable-background="new    " points="187.003,205.917 182.387,206.084 175.286,207.098 
		187.003,194.75 200.003,194.667 	"/>
	<path fill="#FFFFFF" d="M187.058,205.917c0-1.333,0-11.167,0-11.167l13-0.083L187.058,205.917z"/>
	<path fill="#C54635" d="M181.412,175.489c0,2.001-1.405,5.125-2.416,6.716c-2.51,3.947-4.059,6.754-4.695,11.792
		c-0.201,1.588-0.165,2.813-0.639,2.755s-0.482-1.393-0.66-2.703c-0.68-5.025-2.292-7.557-4.489-11.589
		c-0.94-1.724-2.602-4.879-2.602-6.972c0-4.043,3.47-7.322,7.75-7.322C177.942,168.167,181.412,171.445,181.412,175.489z"/>
	<circle fill="#883429" cx="173.662" cy="176.063" r="2.854"/>
</g>
<g>
	
		<linearGradient id="SVGID_36_" gradientUnits="userSpaceOnUse" x1="305.958" y1="753.8721" x2="229.636" y2="677.55" gradientTransform="matrix(1 0 0 1 0 -524)">
		<stop  offset="0.1926" style="stop-color:#303030"/>
		<stop  offset="1" style="stop-color:#4E4D4D"/>
	</linearGradient>
	<rect x="225.407" y="149.271" fill="url(#SVGID_36_)" width="82.545" height="82.646"/>
	<rect x="226.535" y="150.417" fill="#353535" width="80.167" height="80"/>
	
		<linearGradient id="SVGID_37_" gradientUnits="userSpaceOnUse" x1="253.5107" y1="698.1309" x2="312.0421" y2="766.8264" gradientTransform="matrix(1 0 0 1 0 -524)">
		<stop  offset="0.5915" style="stop-color:#151515"/>
		<stop  offset="1" style="stop-color:#000000;stop-opacity:0"/>
	</linearGradient>
	<path fill="url(#SVGID_37_)" d="M244.289,204.334c0,0,0.413,3.833,2.563,5.932c1.27,1.238,20.555,20.151,20.555,20.151h39.294v-37
		l-18.179-22.178c0,0-2.821-3.89-12.654-3.89c-6.533,0-10.438,0-18.501,0s-13.109,6.602-13.109,11.654
		S244.289,204.334,244.289,204.334z"/>
	<g>
		<g>
			<path fill="#FFFFFF" d="M280.681,167.35h-24.583v10.683H254.2V167.35h-0.067c-0.531,0-1.052,0.043-1.56,0.123v10.56h-1.898
				v-10.058c-0.569,0.211-1.113,0.477-1.627,0.783v9.272h-1.897v-7.789c-1.787,1.786-2.893,4.256-2.893,6.983v3.153h15.159
				c2.192-1.747,4.969-2.794,7.99-2.794c3.022,0,5.798,1.047,7.991,2.794h15.159v-3.153
				C290.556,171.77,286.134,167.35,280.681,167.35z M286.375,176.706c0,0.696-0.564,1.26-1.26,1.26h-4.74
				c-0.696,0-1.26-0.563-1.26-1.26V172c0-0.695,0.562-1.259,1.26-1.259h4.74c0.696,0,1.26,0.562,1.26,1.259V176.706z"/>
			<path fill="#FFFFFF" d="M280.238,190.417c0,7.087-5.745,12.831-12.831,12.831c-7.086,0-12.831-5.744-12.831-12.831
				c0-3.089,1.092-5.922,2.911-8.137h-13.229v21.329c0,5.455,4.422,9.875,9.875,9.875h26.548c5.453,0,9.875-4.42,9.875-9.875V182.28
				h-13.229C279.146,184.495,280.238,187.328,280.238,190.417z"/>
		</g>
		<path fill="#FFFFFF" d="M267.407,201.157c-5.924,0-10.744-4.821-10.744-10.745c0-5.923,4.82-10.743,10.744-10.743
			c5.924,0,10.744,4.82,10.744,10.743C278.151,196.336,273.331,201.157,267.407,201.157z M267.407,181.297
			c-5.026,0-9.116,4.089-9.116,9.115c0,5.027,4.09,9.118,9.116,9.118c5.027,0,9.117-4.089,9.117-9.118
			C276.523,185.386,272.434,181.297,267.407,181.297z"/>
	</g>
</g>
<g>
	
		<linearGradient id="SVGID_38_" gradientUnits="userSpaceOnUse" x1="400.0986" y1="753.8721" x2="323.7767" y2="677.55" gradientTransform="matrix(1 0 0 1 0 -524)">
		<stop  offset="0.1926" style="stop-color:#303030"/>
		<stop  offset="1" style="stop-color:#4E4D4D"/>
	</linearGradient>
	<rect x="319.549" y="149.271" fill="url(#SVGID_38_)" width="82.545" height="82.646"/>
	<rect x="320.677" y="150.417" fill="#353535" width="80.167" height="80"/>
	
		<linearGradient id="SVGID_40_" gradientUnits="userSpaceOnUse" x1="355.9492" y1="702.0723" x2="405.3551" y2="760.0576" gradientTransform="matrix(1 0 0 1 0 -524)">
		<stop  offset="0.6141" style="stop-color:#151515"/>
		<stop  offset="1" style="stop-color:#000000;stop-opacity:0"/>
	</linearGradient>
	<path fill="url(#SVGID_40_)" d="M354.3,213.482l19.117,16.935h27.427v-37l-28.534-27.285c0,0-2.673,0-5.506,0
		c-8.062,0-12.503,6.17-12.503,11.226C354.301,182.412,354.3,213.482,354.3,213.482z"/>
	
		<linearGradient id="SVGID_42_" gradientUnits="userSpaceOnUse" x1="351.1904" y1="713.7441" x2="355.744" y2="719.0886" gradientTransform="matrix(1 0 0 1 0 -524)">
		<stop  offset="0.5097" style="stop-color:#151515"/>
		<stop  offset="1" style="stop-color:#000000;stop-opacity:0"/>
	</linearGradient>
	<polygon fill="url(#SVGID_42_)" points="349.456,190.55 354.3,190.55 354.3,195.771 	"/>
	<path id="Facebook_2_" fill="#FFFFFF" d="M354.3,175.668c0,1.24,0,6.777,0,6.777h-4.967v8.291h4.967v22.746h10.202v-22.746h6.845
		c0,0,0.644-3.977,0.952-8.321c-0.891,0-7.758,0-7.758,0s0-4.822,0-5.667c0-0.848,1.112-1.986,2.212-1.986c1.097,0,3.414,0,5.558,0
		c0-1.129,0-5.027,0-8.63c-2.861,0-6.12,0-7.557,0C354.047,166.132,354.3,174.43,354.3,175.668z"/>
</g>
<g>
	
		<linearGradient id="SVGID_44_" gradientUnits="userSpaceOnUse" x1="494.2422" y1="753.8721" x2="417.9209" y2="677.5507" gradientTransform="matrix(1 0 0 1 0 -524)">
		<stop  offset="0.1926" style="stop-color:#303030"/>
		<stop  offset="1" style="stop-color:#4E4D4D"/>
	</linearGradient>
	<rect x="413.691" y="149.271" fill="url(#SVGID_44_)" width="82.545" height="82.646"/>
	<rect x="414.819" y="150.417" fill="#353535" width="80.167" height="80"/>
	
		<linearGradient id="SVGID_46_" gradientUnits="userSpaceOnUse" x1="451.6016" y1="711.9365" x2="493.2807" y2="760.8534" gradientTransform="matrix(1 0 0 1 0 -524)">
		<stop  offset="0.5948" style="stop-color:#151515"/>
		<stop  offset="1" style="stop-color:#000000;stop-opacity:0"/>
	</linearGradient>
	<path fill="url(#SVGID_46_)" d="M429.887,207.893l25.018,22.524h40.084v-37l-19.504-18.604c0,0-6.663,5.354-14.413,2.479
		c-7.562-2.804-6.974,8.069-7,13.125C453.944,212.215,429.887,207.893,429.887,207.893z"/>
	<path fill="#FFFFFF" d="M476.777,178.619c-1.728,0.765-3.579,1.281-5.525,1.515c1.986-1.19,3.512-3.075,4.23-5.321
		c-1.859,1.104-3.918,1.902-6.109,2.334c-1.755-1.869-4.255-3.037-7.021-3.037c-5.312,0-9.619,4.308-9.619,9.619
		c0,0.754,0.086,1.488,0.25,2.191c-7.996-0.4-15.084-4.23-19.828-10.051c-0.829,1.421-1.305,3.072-1.305,4.837
		c0,3.336,1.698,6.28,4.279,8.007c-1.576-0.05-3.061-0.482-4.355-1.203c0,0.04-0.001,0.08-0.001,0.12
		c0,4.661,3.313,8.55,7.718,9.435c-0.811,0.221-1.658,0.336-2.535,0.336c-0.62,0-1.223-0.061-1.812-0.172
		c1.226,3.821,4.776,6.604,8.985,6.683c-3.291,2.58-7.438,4.116-11.947,4.116c-0.773,0-1.542-0.045-2.295-0.135
		c4.258,2.729,9.314,4.322,14.747,4.322c17.695,0,27.371-14.658,27.371-27.371c0-0.417-0.01-0.832-0.028-1.244
		C473.856,182.243,475.488,180.549,476.777,178.619z"/>
</g>
<g>
	
		<linearGradient id="SVGID_48_" gradientUnits="userSpaceOnUse" x1="588.3838" y1="753.8711" x2="512.0623" y2="677.5496" gradientTransform="matrix(1 0 0 1 0 -524)">
		<stop  offset="0.1926" style="stop-color:#303030"/>
		<stop  offset="1" style="stop-color:#4E4D4D"/>
	</linearGradient>
	<rect x="507.834" y="149.271" fill="url(#SVGID_48_)" width="82.544" height="82.646"/>
	<rect x="508.961" y="150.417" fill="#353535" width="80.167" height="80"/>
	
		<linearGradient id="SVGID_49_" gradientUnits="userSpaceOnUse" x1="538.8184" y1="715.2764" x2="592.1171" y2="766.16" gradientTransform="matrix(1 0 0 1 0 -524)">
		<stop  offset="0.5059" style="stop-color:#151515"/>
		<stop  offset="1" style="stop-color:#000000;stop-opacity:0"/>
	</linearGradient>
	<path fill="url(#SVGID_49_)" d="M527.508,208.583c0,0,0.412,3.833,2.562,5.931c1.27,1.239,19.764,15.903,19.764,15.903h39.294
		v-17.599l-19.606-23.791c0,0-1.393-2.275-11.227-2.275c-6.533,0-10.438,0-18.501,0c-8.062,0-12.317,10.85-12.317,15.905
		C527.477,207.711,527.508,208.583,527.508,208.583z"/>
	<g>
		<g>
			<polygon id="SVGID_39_" fill="#161616" points="541.113,163.318 539.269,171.034 539.08,171.034 537.146,163.318 
				534.143,163.318 537.691,174.969 537.691,182.619 540.672,182.619 540.672,174.611 544.141,163.318 			"/>
		</g>
	</g>
	<g>
		<g>
			<path id="SVGID_41_" fill="#161616" d="M547.014,180.191c-0.188-0.213-0.283-0.518-0.283-0.909v-7.753
				c0-0.312,0.104-0.562,0.305-0.756c0.201-0.188,0.464-0.282,0.787-0.282c0.348,0,0.631,0.096,0.846,0.282
				c0.215,0.192,0.325,0.442,0.325,0.756v7.753c0,0.382-0.104,0.683-0.314,0.901c-0.213,0.217-0.498,0.326-0.854,0.326
				C547.471,180.512,547.203,180.404,547.014,180.191 M545.076,169c-0.713,0.655-1.072,1.533-1.072,2.634l0.004,7.384
				c0,1.207,0.346,2.17,1.041,2.888c0.691,0.717,1.621,1.073,2.78,1.073c1.199,0,2.145-0.349,2.832-1.039
				c0.683-0.694,1.028-1.649,1.028-2.873v-7.352c0-1.086-0.352-1.973-1.049-2.66c-0.699-0.688-1.6-1.035-2.691-1.035
				C546.746,168.021,545.787,168.35,545.076,169"/>
		</g>
		<g>
			<g>
				<defs>
					<path id="SVGID_50_" d="M547.014,180.191c-0.188-0.213-0.283-0.518-0.283-0.909v-7.753c0-0.312,0.104-0.562,0.305-0.756
						c0.201-0.188,0.464-0.282,0.787-0.282c0.348,0,0.631,0.096,0.846,0.282c0.215,0.192,0.325,0.442,0.325,0.756v7.753
						c0,0.382-0.104,0.683-0.314,0.901c-0.213,0.217-0.498,0.326-0.854,0.326C547.471,180.512,547.203,180.404,547.014,180.191
						 M545.076,169c-0.713,0.655-1.072,1.533-1.072,2.634l0.004,7.384c0,1.207,0.346,2.17,1.041,2.888
						c0.691,0.717,1.621,1.073,2.78,1.073c1.199,0,2.145-0.349,2.832-1.039c0.683-0.694,1.028-1.649,1.028-2.873v-7.352
						c0-1.086-0.352-1.973-1.049-2.66c-0.699-0.688-1.6-1.035-2.691-1.035C546.746,168.021,545.787,168.35,545.076,169"/>
				</defs>
				<clipPath id="SVGID_51_">
					<use xlink:href="#SVGID_50_"  overflow="visible"/>
				</clipPath>
				<rect x="544.004" y="168.021" clip-path="url(#SVGID_51_)" fill="#161616" width="7.688" height="14.957"/>
			</g>
		</g>
	</g>
	<g>
		<g>
			<path id="SVGID_43_" fill="#161616" d="M558.844,168.381v10.807c-0.252,0.312-0.521,0.567-0.814,0.769
				c-0.301,0.2-0.545,0.3-0.739,0.3c-0.249,0-0.427-0.074-0.537-0.229c-0.112-0.148-0.167-0.393-0.167-0.73v-10.915h-2.645v11.901
				c0,0.847,0.149,1.48,0.461,1.904c0.311,0.422,0.771,0.636,1.384,0.636c0.498,0,1.009-0.151,1.538-0.454
				c0.525-0.301,1.035-0.744,1.521-1.322v1.573h2.647v-14.238L558.844,168.381L558.844,168.381z"/>
		</g>
	</g>
	<path opacity="0.8" fill="#161616" enable-background="new    " d="M540.004,191.034h-9.146v2.803h3.083v16.499h2.979v-16.499
		h3.084V191.034z M544.876,206.904c-0.245,0.312-0.517,0.564-0.817,0.766c-0.3,0.202-0.545,0.301-0.734,0.301
		c-0.248,0-0.43-0.074-0.537-0.227c-0.115-0.152-0.168-0.396-0.168-0.734v-10.912h-2.646v11.9c0,0.85,0.15,1.48,0.465,1.906
		c0.312,0.424,0.771,0.635,1.385,0.635c0.494,0,1.008-0.152,1.537-0.452c0.523-0.303,1.031-0.744,1.521-1.325v1.574h2.647v-14.238
		h-2.647v10.808L544.876,206.904L544.876,206.904z M555.133,195.919c-0.411,0-0.814,0.112-1.219,0.339
		c-0.398,0.225-0.775,0.555-1.135,0.99v-6.214h-2.672v19.302h2.672v-1.096c0.348,0.434,0.725,0.752,1.127,0.959
		c0.41,0.212,0.869,0.314,1.387,0.314c0.785,0,1.383-0.268,1.801-0.808c0.414-0.537,0.62-1.312,0.62-2.323v-7.898
		c0-1.16-0.222-2.047-0.661-2.655C556.611,196.221,555.971,195.919,555.133,195.919 M554.99,206.995c0,0.456-0.076,0.782-0.23,0.983
		c-0.147,0.198-0.391,0.299-0.715,0.299c-0.225,0-0.436-0.053-0.638-0.155c-0.202-0.101-0.411-0.267-0.628-0.499v-8.871
		c0.181-0.197,0.359-0.34,0.547-0.434c0.184-0.09,0.369-0.143,0.56-0.143c0.356,0,0.63,0.126,0.818,0.375
		c0.189,0.251,0.286,0.614,0.286,1.098V206.995z M567.498,203.548v-3.624c0-1.351-0.324-2.386-0.977-3.105
		c-0.65-0.719-1.58-1.077-2.791-1.077c-1.187,0-2.148,0.386-2.898,1.166c-0.749,0.776-1.123,1.782-1.123,3.019v6.393
		c0,1.373,0.342,2.447,1.023,3.23c0.682,0.781,1.611,1.174,2.798,1.174c1.314,0,2.31-0.367,2.973-1.105
		c0.663-0.739,0.995-1.84,0.995-3.299v-1.068h-2.725v0.991c0,0.839-0.086,1.376-0.264,1.62c-0.174,0.246-0.481,0.367-0.924,0.367
		c-0.419,0-0.717-0.144-0.891-0.434c-0.18-0.29-0.264-0.811-0.264-1.556v-2.689L567.498,203.548L567.498,203.548z M562.436,199.898
		c0-0.6,0.094-1.023,0.275-1.282c0.182-0.257,0.484-0.386,0.905-0.386c0.407,0,0.693,0.129,0.881,0.386
		c0.184,0.259,0.276,0.685,0.276,1.282v1.44h-2.34L562.436,199.898L562.436,199.898z"/>
	<g>
		<g>
			<g>
				<polygon id="SVGID_45_" fill="#FFFFFF" points="539.973,162.322 538.128,170.037 537.938,170.037 536.006,162.322 
					533.001,162.322 536.551,173.973 536.551,181.623 539.531,181.623 539.531,173.615 543,162.322 				"/>
			</g>
		</g>
		<g>
			<path fill="#FFFFFF" d="M549.502,168.061c-0.701-0.688-1.6-1.035-2.694-1.035c-1.2,0-2.159,0.328-2.872,0.979
				c-0.714,0.654-1.07,1.533-1.07,2.634l0.004,7.383c0,1.209,0.346,2.17,1.041,2.888c0.689,0.717,1.621,1.073,2.779,1.073
				c1.198,0,2.146-0.348,2.833-1.039c0.683-0.693,1.026-1.649,1.026-2.873v-7.351C550.549,169.635,550.199,168.747,549.502,168.061z
				 M547.851,178.287c0,0.382-0.104,0.682-0.312,0.9c-0.214,0.218-0.499,0.328-0.856,0.328c-0.35,0-0.615-0.109-0.807-0.32
				c-0.189-0.215-0.283-0.519-0.283-0.908v-7.754c0-0.312,0.102-0.563,0.303-0.754c0.201-0.188,0.465-0.283,0.787-0.283
				c0.35,0,0.631,0.095,0.846,0.283c0.217,0.189,0.325,0.44,0.325,0.754L547.851,178.287L547.851,178.287z"/>
		</g>
		<g>
			<g>
				<path id="SVGID_47_" fill="#FFFFFF" d="M557.703,167.386v10.806c-0.251,0.312-0.521,0.568-0.816,0.767
					c-0.299,0.201-0.545,0.302-0.738,0.302c-0.249,0-0.428-0.072-0.536-0.228c-0.112-0.149-0.168-0.394-0.168-0.732v-10.911h-2.646
					v11.898c0,0.847,0.152,1.48,0.461,1.906c0.312,0.421,0.774,0.634,1.384,0.634c0.498,0,1.012-0.15,1.539-0.453
					s1.034-0.746,1.521-1.323v1.573h2.646v-14.237L557.703,167.386L557.703,167.386z"/>
			</g>
		</g>
	</g>
	<g>
		<path fill="#DCDBDB" d="M553.886,198.177c-0.188,0-0.376,0.052-0.56,0.142c-0.188,0.095-0.366,0.236-0.547,0.435v8.871
			c0.217,0.231,0.426,0.397,0.628,0.499c0.202,0.104,0.413,0.154,0.638,0.154c0.324,0,0.565-0.1,0.715-0.299
			c0.154-0.201,0.23-0.526,0.23-0.982v-7.35c0-0.479-0.097-0.845-0.286-1.096C554.516,198.303,554.242,198.177,553.886,198.177z"/>
		<path fill="#DCDBDB" d="M563.616,198.23c-0.421,0-0.726,0.129-0.905,0.386c-0.184,0.259-0.275,0.685-0.275,1.282v1.44h2.34v-1.44
			c0-0.6-0.095-1.023-0.276-1.282C564.312,198.359,564.023,198.23,563.616,198.23z"/>
		<path fill="#FFFFFF" d="M570.811,192.791c0-3.438-2.818-6.227-6.299-6.227c-4.719-0.196-9.539-0.291-14.453-0.291h-0.768
			c-0.258,0-0.514,0-0.772,0c-4.908,0-9.73,0.094-14.452,0.291c-3.479,0-6.297,2.789-6.297,6.227
			c-0.21,2.725-0.301,5.448-0.293,8.169c-0.008,2.724,0.083,5.445,0.293,8.175c0,3.437,2.818,6.223,6.297,6.223
			c4.965,0.215,10.047,0.301,15.227,0.291c5.177,0.01,10.256-0.076,15.221-0.291c3.479,0,6.301-2.786,6.301-6.223
			c0.211-2.729,0.299-5.451,0.294-8.175C571.109,198.239,571.021,195.516,570.811,192.791z M536.92,210.336h-2.979v-16.499h-3.083
			v-2.803h9.146v2.803h-3.084V210.336z M547.523,210.336h-2.647v-1.574c-0.487,0.581-0.995,1.022-1.521,1.325
			c-0.529,0.3-1.043,0.452-1.537,0.452c-0.611,0-1.07-0.211-1.383-0.635c-0.314-0.426-0.467-1.06-0.467-1.906v-11.9h2.646v10.912
			c0,0.338,0.053,0.582,0.168,0.734c0.107,0.15,0.289,0.227,0.537,0.227c0.189,0,0.437-0.099,0.734-0.301
			c0.303-0.199,0.572-0.454,0.817-0.766v-10.807h2.647v14.237L547.523,210.336L547.523,210.336z M557.714,207.385
			c0,1.012-0.206,1.786-0.62,2.323c-0.418,0.54-1.016,0.808-1.801,0.808c-0.518,0-0.977-0.104-1.387-0.314
			c-0.402-0.207-0.779-0.525-1.127-0.959v1.096h-2.672v-19.302h2.672v6.214c0.357-0.436,0.734-0.766,1.135-0.99
			c0.402-0.227,0.808-0.339,1.219-0.339c0.838,0,1.479,0.304,1.92,0.911c0.439,0.607,0.661,1.495,0.661,2.654V207.385
			L557.714,207.385z M567.498,203.548h-5.062v2.688c0,0.746,0.084,1.267,0.264,1.557c0.174,0.29,0.472,0.432,0.891,0.432
			c0.44,0,0.75-0.121,0.924-0.365c0.178-0.244,0.264-0.781,0.264-1.62v-0.991h2.725v1.068c0,1.459-0.332,2.56-0.995,3.299
			c-0.663,0.736-1.656,1.104-2.973,1.104c-1.187,0-2.116-0.391-2.798-1.172c-0.684-0.785-1.023-1.859-1.023-3.23v-6.393
			c0-1.234,0.374-2.24,1.123-3.019c0.75-0.78,1.714-1.166,2.898-1.166c1.211,0,2.141,0.358,2.792,1.079
			c0.649,0.72,0.976,1.755,0.976,3.104v3.625L567.498,203.548L567.498,203.548z"/>
	</g>
</g>
<linearGradient id="SVGID_52_" gradientUnits="userSpaceOnUse" x1="211.7529" y1="643.3115" x2="135.4323" y2="566.991" gradientTransform="matrix(1 0 0 1 0 -524)">
	<stop  offset="0.1926" style="stop-color:#303030"/>
	<stop  offset="1" style="stop-color:#4E4D4D"/>
</linearGradient>
<rect x="131.204" y="38.712" fill="url(#SVGID_52_)" width="82.543" height="82.645"/>
<rect x="132.332" y="39.856" fill="#252525" width="80.165" height="80"/>
<g>
	
		<linearGradient id="SVGID_53_" gradientUnits="userSpaceOnUse" x1="173.0444" y1="602.8594" x2="207.0551" y2="642.7759" gradientTransform="matrix(1 0 0 1 0 -524)">
		<stop  offset="0.3386" style="stop-color:#151515"/>
		<stop  offset="0.9146" style="stop-color:#000000;stop-opacity:0"/>
	</linearGradient>
	<polygon fill="url(#SVGID_53_)" points="146.582,95.689 167.664,119.856 212.497,119.856 212.497,82.856 199.997,62.606 	"/>
	<polygon fill="#F0EEEE" points="146.748,59.106 164.998,62.606 181.997,59.106 199.997,62.606 199.997,84.106 186.997,95.356 
		182.327,95.523 165.248,98.106 146.748,95.106 	"/>
	<polygon fill="#BABBBB" points="162.408,64.39 148.769,61.606 148.769,92.747 151.018,93.106 164.905,81.781 164.801,67.056 	"/>
	<polygon fill="#BABBBB" points="161.208,89.106 155.007,93.955 165.003,95.748 164.977,92.023 	"/>
	<polygon fill="#BABBBB" points="189.206,62.731 182.021,61.294 181.782,61.341 181.821,68.265 	"/>
	<polygon fill="#BABBBB" points="163.032,87.917 164.96,89.656 164.937,86.354 	"/>
	<polygon fill="#B2B3B3" points="181.821,68.265 175.247,73.189 166.748,66.939 166.748,64.294 181.782,61.341 181.771,59.106 
		164.77,62.606 164.801,67.056 172.477,75.606 164.905,81.781 164.937,86.354 181.847,72.489 	"/>
	<polygon fill="#848484" points="164.801,67.056 164.905,81.781 172.477,75.606 	"/>
	<polygon fill="#848484" points="174.017,95.396 165.207,92.202 164.977,92.023 165.003,95.748 165.211,95.785 	"/>
	<polygon fill="#848484" points="166.748,66.939 175.247,73.189 181.821,68.265 181.782,61.341 166.748,64.294 	"/>
	<g>
		<polygon fill="#BABBBB" points="186.944,84.189 198.528,84.115 198.538,84.106 198.538,64.669 192.831,63.481 181.847,72.489 
			181.942,89.459 		"/>
		<polygon fill="#848484" points="181.847,72.489 164.937,86.354 164.96,89.656 165.19,89.863 177.153,94.505 181.942,89.459 		"/>
		<polygon fill="#939393" points="181.968,93.933 181.942,89.459 177.153,94.505 178.06,94.855 		"/>
		<polygon opacity="0.5" fill="#68696A" enable-background="new    " points="181.968,93.933 181.942,89.459 177.153,94.505 
			178.06,94.855 		"/>
	</g>
	<g>
		<polygon opacity="0.5" fill="#68696A" enable-background="new    " points="198.532,84.115 199.946,84.106 199.946,84.106 		"/>
		<g>
			<polygon fill="#A4A1A1" points="175.157,96.607 177.153,94.505 165.19,89.863 164.96,89.656 164.977,92.023 165.207,92.202 
				174.017,95.396 165.211,95.785 165.003,95.748 165.02,98.106 165.248,98.106 			"/>
			<polygon fill="#787878" points="175.132,96.651 181.942,95.625 181.968,93.933 178.034,94.838 177.128,94.474 			"/>
		</g>
		<g>
			<path opacity="0.5" fill="#434343" enable-background="new    " d="M198.528,84.115L198.528,84.115l-11.584,0.074l-5.002,5.27
				l0.025,4.474l0.23-0.054l4.801-0.194c0-3.688,0-9.495,0-9.495L198.528,84.115z"/>
		</g>
		<path fill="#EFEFEF" d="M199.997,84.106h-0.055L186.997,95.31c0,0.015,0,0.034,0,0.047L199.997,84.106z"/>
	</g>
	<polygon fill="#AEADAE" points="181.942,95.625 182.233,95.576 186.974,95.356 186.974,93.685 182.171,93.879 181.942,93.933 	"/>
	<path fill="#C54635" d="M181.058,63.676c0,2.001-1.404,5.125-2.416,6.716c-2.51,3.948-4.059,6.754-4.695,11.792
		c-0.201,1.588-0.164,2.814-0.639,2.755s-0.481-1.393-0.66-2.703c-0.68-5.024-2.291-7.557-4.488-11.589
		c-0.941-1.724-2.602-4.879-2.602-6.972c0-4.043,3.469-7.322,7.75-7.322C177.587,56.354,181.058,59.633,181.058,63.676z"/>
	<circle fill="#883429" cx="173.31" cy="64.25" r="2.854"/>
</g>
<g>
	
		<linearGradient id="SVGID_54_" gradientUnits="userSpaceOnUse" x1="173.0449" y1="713.9326" x2="207.055" y2="753.8485" gradientTransform="matrix(1 0 0 1 0 -524)">
		<stop  offset="0.3386" style="stop-color:#151515"/>
		<stop  offset="0.9146" style="stop-color:#000000;stop-opacity:0"/>
	</linearGradient>
	<polygon fill="url(#SVGID_54_)" points="146.582,206.762 167.664,230.93 212.497,230.93 212.497,193.93 199.997,173.68 	"/>
	<polygon fill="#F0EEEE" points="146.748,170.18 164.998,173.68 181.997,170.18 199.997,173.68 199.997,195.18 186.997,206.43 
		182.327,206.596 165.248,209.18 146.748,206.18 	"/>
	<polygon fill="#BABBBB" points="162.408,175.462 148.769,172.68 148.769,203.818 151.018,204.18 164.905,192.854 164.801,178.128 	
		"/>
	<polygon fill="#BABBBB" points="161.208,200.18 155.007,205.027 165.003,206.82 164.977,203.096 	"/>
	<polygon fill="#BABBBB" points="189.206,173.805 182.021,172.366 181.782,172.413 181.821,179.337 	"/>
	<polygon fill="#BABBBB" points="163.032,198.989 164.96,200.729 164.937,197.426 	"/>
	<polygon fill="#B2B3B3" points="181.821,179.337 175.247,184.262 166.748,178.012 166.748,175.366 181.782,172.413 181.771,170.18 
		164.77,173.68 164.801,178.128 172.477,186.68 164.905,192.854 164.937,197.426 181.847,183.562 	"/>
	<polygon fill="#848484" points="164.801,178.128 164.905,192.854 172.477,186.68 	"/>
	<polygon fill="#848484" points="174.017,206.468 165.207,203.273 164.977,203.096 165.003,206.82 165.211,206.857 	"/>
	<polygon fill="#848484" points="166.748,178.012 175.247,184.262 181.821,179.337 181.782,172.413 166.748,175.366 	"/>
	<g>
		<polygon fill="#BABBBB" points="186.944,195.262 198.528,195.188 198.538,195.18 198.538,175.741 192.831,174.555 
			181.847,183.562 181.942,200.531 		"/>
		<polygon fill="#848484" points="181.847,183.562 164.937,197.426 164.96,200.729 165.19,200.936 177.153,205.577 181.942,200.531 
					"/>
		<polygon fill="#939393" points="181.968,205.005 181.942,200.531 177.153,205.577 178.06,205.928 		"/>
		<polygon opacity="0.5" fill="#68696A" enable-background="new    " points="181.968,205.005 181.942,200.531 177.153,205.577 
			178.06,205.928 		"/>
	</g>
	<g>
		<polygon opacity="0.5" fill="#68696A" enable-background="new    " points="198.532,195.188 199.946,195.18 199.946,195.18 		"/>
		<g>
			<polygon fill="#A4A1A1" points="175.157,207.68 177.153,205.577 165.19,200.936 164.96,200.729 164.977,203.096 165.207,203.273 
				174.017,206.468 165.211,206.857 165.003,206.82 165.02,209.18 165.248,209.18 			"/>
			<polygon fill="#787878" points="175.132,207.725 181.942,206.697 181.968,205.005 178.034,205.91 177.128,205.546 			"/>
		</g>
		<g>
			<path opacity="0.5" fill="#434343" enable-background="new    " d="M198.528,195.188L198.528,195.188l-11.584,0.074l-5.002,5.271
				l0.025,4.474l0.23-0.054l4.801-0.194c0-3.688,0-9.494,0-9.494L198.528,195.188z"/>
		</g>
		<path fill="#EFEFEF" d="M199.997,195.18h-0.055l-12.945,11.202c0,0.015,0,0.034,0,0.048L199.997,195.18z"/>
	</g>
	<polygon fill="#AEADAE" points="181.942,206.697 182.233,206.648 186.974,206.43 186.974,204.757 182.171,204.951 181.942,205.005 
			"/>
	<path fill="#C54635" d="M181.058,174.748c0,2.001-1.404,5.125-2.416,6.716c-2.51,3.948-4.059,6.754-4.695,11.792
		c-0.201,1.588-0.164,2.814-0.639,2.755c-0.475-0.059-0.481-1.393-0.66-2.702c-0.68-5.024-2.291-7.558-4.488-11.59
		c-0.941-1.724-2.602-4.879-2.602-6.972c0-4.043,3.469-7.322,7.75-7.322C177.587,167.426,181.058,170.705,181.058,174.748z"/>
	<circle fill="#883429" cx="173.31" cy="175.322" r="2.854"/>
</g>
</svg>
