<?xml version="1.0" encoding="utf-8"?>
<!-- Generator: Adobe Illustrator 16.0.4, SVG Export Plug-In . SVG Version: 6.00 Build 0)  -->
<!DOCTYPE svg PUBLIC "-//W3C//DTD SVG 1.1//EN" "http://www.w3.org/Graphics/SVG/1.1/DTD/svg11.dtd">
<svg version="1.1" id="Layer_1" xmlns="http://www.w3.org/2000/svg" xmlns:xlink="http://www.w3.org/1999/xlink" x="0px" y="0px"
	 width="325.837px" height="149.214px" viewBox="0 0 325.837 149.214" enable-background="new 0 0 325.837 149.214"
	 xml:space="preserve">
<g>
	<rect x="119.804" y="31.931" fill="#B7B7B7" width="82.545" height="82.645"/>
	<rect x="120.932" y="33.076" fill="#CCCCCE" width="80.167" height="80"/>
	<linearGradient id="SVGID_1_" gradientUnits="userSpaceOnUse" x1="160.8296" y1="72.7744" x2="194.8396" y2="112.6902">
		<stop  offset="0" style="stop-color:#414040"/>
		<stop  offset="0.9146" style="stop-color:#000000;stop-opacity:0"/>
	</linearGradient>
	<polygon fill="url(#SVGID_1_)" points="135.182,88.909 156.265,113.076 201.099,113.076 201.099,76.076 186.849,57.076 	"/>
	<g>
		<rect x="135.182" y="57.076" fill="#F0EEEE" width="51.667" height="31.833"/>
		<polygon fill="#E8E8E8" points="186.682,88.909 161.015,69.909 135.348,88.909 		"/>
		<polygon fill="#A4A1A1" points="135.348,57.076 161.015,81.993 186.682,57.076 		"/>
		<polygon fill="#DFDFDF" points="135.348,57.076 161.015,76.826 186.682,57.076 		"/>
	</g>
</g>
<g>
	<rect x="211.946" y="31.931" fill="#B7B7B7" width="82.544" height="82.645"/>
	<rect x="213.074" y="33.076" fill="#CCCCCE" width="80.167" height="80"/>
	<linearGradient id="SVGID_2_" gradientUnits="userSpaceOnUse" x1="253.7861" y1="72.0791" x2="287.7967" y2="111.9956">
		<stop  offset="0" style="stop-color:#414040"/>
		<stop  offset="0.9146" style="stop-color:#000000;stop-opacity:0"/>
	</linearGradient>
	<polygon fill="url(#SVGID_2_)" points="227.324,88.909 248.407,113.076 293.241,113.076 293.241,76.076 280.741,55.826 	"/>
	<polygon fill="#F0EEEE" points="227.49,52.326 245.741,55.826 262.741,52.326 280.741,55.826 280.741,77.326 267.741,88.576 
		263.069,88.743 245.991,91.326 227.49,88.326 	"/>
	<polygon fill="#A4A1A1" points="245.741,55.826 245.991,91.326 262.948,88.743 262.741,52.326 	"/>
	<g>
		<polygon fill="#BABBBB" points="229.511,54.826 243.15,57.608 253.219,68.826 231.76,86.326 229.511,85.966 		"/>
		<polygon fill="#BABBBB" points="235.749,87.173 241.95,82.326 245.949,85.421 254.758,88.614 245.954,89.004 		"/>
		<polygon fill="#BABBBB" points="247.491,57.513 262.762,54.513 269.95,55.951 255.991,66.409 247.491,60.159 		"/>
		<polygon fill="#BABBBB" points="243.773,81.136 273.575,56.701 279.282,57.888 279.282,77.326 267.741,86.903 262.94,87.098 
			258.801,88.075 245.932,83.083 		"/>
	</g>
	<polygon opacity="0.5" fill="#68696A" points="267.685,88.576 263.069,88.743 255.967,89.755 267.685,77.409 280.685,77.326 	"/>
	<path fill="#EFEFEF" d="M267.741,88.576c0-1.333,0-11.167,0-11.167l13-0.083L267.741,88.576z"/>
	<path fill="#C54635" d="M262.094,58.147c0,2.001-1.404,5.125-2.416,6.716c-2.51,3.948-4.059,6.754-4.695,11.792
		c-0.201,1.588-0.165,2.814-0.639,2.755c-0.475-0.059-0.482-1.393-0.66-2.703c-0.68-5.025-2.291-7.557-4.488-11.589
		c-0.941-1.724-2.602-4.879-2.602-6.972c0-4.043,3.469-7.322,7.75-7.322C258.624,50.826,262.094,54.104,262.094,58.147z"/>
	<circle fill="#883429" cx="254.344" cy="58.722" r="2.854"/>
</g>
<rect x="27.84" y="31.931" fill="#B7B7B7" width="82.545" height="82.645"/>
<rect x="28.968" y="33.076" fill="#CCCCCE" width="80.167" height="80"/>
<linearGradient id="SVGID_3_" gradientUnits="userSpaceOnUse" x1="60.6143" y1="57.0234" x2="105.0083" y2="109.1266">
	<stop  offset="0" style="stop-color:#414040"/>
	<stop  offset="0.9146" style="stop-color:#000000;stop-opacity:0"/>
</linearGradient>
<path fill="url(#SVGID_3_)" d="M55.091,100.019l12.959,13.057h41.083V69.909L91.872,44.23c0,0-5.836-5.933-15.563-5.591
	l3.332,15.395l-24.474,0.169L55.091,100.019z"/>
<path fill="#F0EEEE" d="M79.992,50.773H57.583c-1.898,0-3.437,1.539-3.437,3.437v43.204c0,1.897,1.539,3.436,3.437,3.436h22.409
	c1.898,0,3.437-1.539,3.437-3.436V54.209C83.429,52.312,81.891,50.773,79.992,50.773z M68.788,98.982
	c-1.227,0-2.222-0.995-2.222-2.222s0.995-2.222,2.222-2.222c1.228,0,2.223,0.995,2.223,2.222S70.015,98.982,68.788,98.982z
	 M80.422,91.792H57.153V57.019h23.269V91.792z"/>
<g>
	<path fill="#F0EEEE" d="M79.61,47.051c4.081,0,7.4,3.319,7.4,7.399c0,0.558-0.067,1.1-0.185,1.624l3.016,0.68
		c0.168-0.743,0.264-1.511,0.264-2.303c0-5.787-4.708-10.494-10.495-10.494c-0.735,0-1.452,0.077-2.144,0.222l0.632,3.03
		C78.586,47.106,79.091,47.051,79.61,47.051z"/>
	<path fill="#F0EEEE" d="M79.61,41.392c7.201,0,13.059,5.858,13.059,13.058c0,0.985-0.119,1.942-0.327,2.866l3.018,0.678
		c0.257-1.142,0.404-2.325,0.404-3.544c0-8.907-7.246-16.153-16.154-16.153c-1.131,0-2.235,0.119-3.301,0.341l0.632,3.03
		C77.803,41.488,78.695,41.392,79.61,41.392z"/>
</g>
</svg>
