<?xml version="1.0" encoding="utf-8"?>
<!-- Generator: Adobe Illustrator 16.0.4, SVG Export Plug-In . SVG Version: 6.00 Build 0)  -->
<!DOCTYPE svg PUBLIC "-//W3C//DTD SVG 1.1//EN" "http://www.w3.org/Graphics/SVG/1.1/DTD/svg11.dtd">
<svg version="1.1" id="Layer_1" xmlns="http://www.w3.org/2000/svg" xmlns:xlink="http://www.w3.org/1999/xlink" x="0px" y="0px"
	 width="612px" height="792px" viewBox="0 0 612 792" enable-background="new 0 0 612 792" xml:space="preserve">
<rect x="0.5" y="-1.836" display="none" width="610" height="792"/>
<g>
	<path d="M264.154,502.088h-40.351c-4.01,0-7.445-1.432-10.222-4.254c-2.784-2.82-4.262-6.277-4.388-10.244v-50.316
		c0.126-3.975,1.604-7.43,4.388-10.268c2.776-2.82,6.218-4.238,10.222-4.238h24.132c3.993,0,7.402,1.418,10.107,4.238
		c2.732,2.838,4.247,6.301,4.502,10.289l0.402,5.961l-0.395,6.041c-0.263,4.002-1.768,7.467-4.465,10.295
		c-2.688,2.814-6.07,4.24-10.036,4.24h-30.002v11.277h30.002c6.979,0,12.949-2.504,17.751-7.438
		c4.772-4.904,7.467-11.064,8.021-18.287l0.403-6.129l-0.414-6.027c-0.411-7.098-3.091-13.221-7.958-18.213
		c-4.886-4.992-10.92-7.52-17.944-7.52H223.83c-7.023,0-13.092,2.527-18.04,7.52c-4.949,4.992-7.592,11.115-7.872,18.242v50.355
		c0.28,7.105,2.923,13.234,7.872,18.229c4.956,4.984,11.034,7.518,18.058,7.518h40.307V502.088z"/>
	<path d="M352.652,513.359v-76.131c-0.271-7.09-2.908-13.221-7.82-18.213c-4.934-4.992-10.967-7.52-17.947-7.52h-30.008v11.271
		h30.008c3.975,0,7.377,1.418,10.135,4.238c2.77,2.838,4.23,6.285,4.363,10.252v64.83h-38.567c-3.944,0-7.298-1.432-9.963-4.238
		c-2.689-2.836-4.182-6.301-4.431-10.295l-0.406-5.961l0.406-6.049c0.25-3.988,1.756-7.443,4.468-10.287
		c2.673-2.814,6.063-4.24,10.036-4.24h29.992V449.74h-29.992c-6.979,0-12.954,2.496-17.756,7.43
		c-4.782,4.92-7.477,11.062-8.02,18.303l-0.402,6.121l0.402,6.033c0.402,7.092,3.057,13.221,7.881,18.199
		c4.822,5,10.799,7.533,17.755,7.533H352.652z"/>
	<path d="M372.174,419.016c-4.926,4.992-7.562,11.123-7.828,18.242v76.102h11.27v-76.086c0.127-3.982,1.604-7.43,4.357-10.268
		c2.756-2.82,6.168-4.238,10.141-4.238h29.992v-11.271h-29.992C383.135,411.496,377.092,414.023,372.174,419.016z"/>
	<path d="M498.668,401.264c-1.086-105.599-87.312-191.181-193.164-191.181c-105.863,0-192.083,85.578-193.168,191.177l-0.019,0.049
		v112.051h11.271v-90.592h38.856c3.966,0,7.371,1.418,10.142,4.238c2.757,2.838,4.228,6.285,4.361,10.252v76.102h11.266v-76.131
		c-0.277-7.098-2.906-13.229-7.825-18.213c-4.923-4.992-10.965-7.52-17.944-7.52h-38.856v-12.873
		c2.47-98.199,83.122-177.329,181.917-177.329c100.334,0,181.969,81.633,181.969,181.971h0.051v98.822h-39.262
		c-4.004,0-7.445-1.432-10.223-4.254c-2.785-2.82-4.254-6.277-4.387-10.244v-50.316c0.133-3.982,1.611-7.43,4.395-10.268
		c2.785-2.82,6.227-4.238,10.236-4.238h30.268v-11.271h-30.207c-7.041,0-13.125,2.527-18.08,7.52
		c-4.957,4.984-7.609,11.115-7.883,18.242v50.355c0.273,7.105,2.926,13.234,7.867,18.229c4.949,4.984,11.02,7.518,18.035,7.518h50.4
		V401.312L498.668,401.264z"/>
	<path d="M273.952,567.984c-2.556,2.393-4.874,3.885-8.492,3.885c-5.481,0-9.618-4.504-9.618-10.475
		c0-5.914,4.137-10.375,9.618-10.375c2.968,0,5.527,1.139,8.274,3.691l0.51,0.48l4.406-5.066l-0.466-0.441
		c-2.618-2.496-6.166-5.053-12.681-5.053c-9.553,0-16.762,7.244-16.762,16.854c0,9.557,7.113,16.76,16.544,16.76
		c5.352,0,9.28-1.721,13.136-5.732l0.454-0.473l-4.438-4.498L273.952,567.984z"/>
	<rect x="285.292" y="545.17" width="6.836" height="32.533"/>
	<polygon points="298.502,551.596 308.392,551.596 308.392,577.703 315.268,577.703 315.268,551.596 325.164,551.596 
		325.164,545.17 298.502,545.17 	"/>
	<polygon points="345.904,558.398 337.535,545.17 329.455,545.17 342.416,564.941 342.416,577.703 349.285,577.703 349.285,564.809 
		362.254,545.17 354.354,545.17 	"/>
</g>
<text transform="matrix(1 0 0 1 0 810)" display="none" font-family="'MyriadPro-Regular'" font-size="12">PANTONE Cool Grey 1 C</text>
</svg>
