<?xml version="1.0" encoding="utf-8"?>
<!-- Generator: Adobe Illustrator 15.1.0, SVG Export Plug-In . SVG Version: 6.00 Build 0)  -->
<!DOCTYPE svg PUBLIC "-//W3C//DTD SVG 1.1//EN" "http://www.w3.org/Graphics/SVG/1.1/DTD/svg11.dtd">
<svg version="1.1" id="Layer_1" xmlns="http://www.w3.org/2000/svg" xmlns:xlink="http://www.w3.org/1999/xlink" x="0px" y="0px"
	 width="386.129px" height="366.395px" viewBox="0 0 386.129 366.395" enable-background="new 0 0 386.129 366.395"
	 xml:space="preserve">
<g>
	<defs>
		<rect id="SVGID_1_" x="-112.554" y="-210.605" width="612" height="792"/>
	</defs>
	<clipPath id="SVGID_2_">
		<use xlink:href="#SVGID_1_"  display="none" overflow="visible"/>
	</clipPath>
	<path clip-path="url(#SVGID_2_)" d="M151.6,291.482h-40.351c-4.01,0-7.445-1.432-10.222-4.254
		c-2.784-2.82-4.261-6.277-4.387-10.244v-50.316c0.126-3.975,1.603-7.43,4.387-10.268c2.777-2.82,6.218-4.238,10.222-4.238h24.132
		c3.993,0,7.402,1.418,10.108,4.238c2.732,2.838,4.246,6.301,4.502,10.289l0.401,5.961l-0.394,6.041
		c-0.263,4.002-1.768,7.467-4.465,10.295c-2.688,2.814-6.07,4.24-10.036,4.24h-30.002v11.277h30.002
		c6.979,0,12.949-2.504,17.751-7.438c4.772-4.904,7.467-11.064,8.02-18.287l0.404-6.129l-0.414-6.027
		c-0.411-7.098-3.091-13.221-7.958-18.213c-4.886-4.992-10.921-7.52-17.944-7.52h-24.081c-7.023,0-13.092,2.527-18.04,7.52
		c-4.948,4.992-7.592,11.115-7.872,18.242v50.355c0.28,7.105,2.924,13.234,7.872,18.229c4.956,4.984,11.034,7.518,18.058,7.518
		H151.6V291.482z"/>
	<path clip-path="url(#SVGID_2_)" d="M240.098,302.754v-76.131c-0.271-7.09-2.908-13.221-7.82-18.213
		c-4.934-4.992-10.967-7.52-17.947-7.52h-30.008v11.271h30.008c3.975,0,7.377,1.418,10.135,4.238
		c2.77,2.838,4.23,6.285,4.362,10.252v64.831h-38.565c-3.945,0-7.298-1.433-9.964-4.239c-2.689-2.836-4.181-6.301-4.431-10.295
		l-0.406-5.961l0.406-6.049c0.25-3.988,1.756-7.443,4.468-10.287c2.673-2.814,6.064-4.24,10.036-4.24h29.993v-11.277h-29.993
		c-6.979,0-12.954,2.496-17.755,7.43c-4.783,4.92-7.477,11.062-8.02,18.303l-0.403,6.121l0.403,6.033
		c0.401,7.092,3.057,13.221,7.88,18.199c4.823,5,10.799,7.533,17.756,7.533H240.098z"/>
	<path clip-path="url(#SVGID_2_)" d="M259.62,208.41c-4.926,4.992-7.562,11.123-7.828,18.242v76.102h11.27v-76.086
		c0.127-3.982,1.604-7.43,4.357-10.268c2.756-2.82,6.168-4.238,10.141-4.238h29.992v-11.271h-29.992
		C270.581,200.891,264.538,203.418,259.62,208.41"/>
	<path clip-path="url(#SVGID_2_)" d="M386.114,190.658C385.028,85.059,298.801-0.523,192.95-0.523
		C87.087-0.523,0.867,85.055-0.219,190.654l-0.018,0.049v112.051h11.27v-90.592h38.856c3.967,0,7.371,1.418,10.142,4.238
		c2.757,2.838,4.228,6.285,4.361,10.252v76.102h11.266v-76.131c-0.277-7.098-2.906-13.229-7.825-18.213
		c-4.923-4.992-10.965-7.52-17.944-7.52H11.033v-12.873C13.504,89.818,94.155,10.689,192.95,10.689
		c100.334,0,181.969,81.633,181.969,181.971h0.051v98.822h-39.262c-4.004,0-7.445-1.432-10.223-4.254
		c-2.785-2.82-4.254-6.277-4.387-10.244v-50.316c0.133-3.982,1.611-7.43,4.395-10.268c2.785-2.82,6.227-4.238,10.236-4.238h30.268
		v-11.271H335.79c-7.041,0-13.125,2.527-18.08,7.52c-4.957,4.984-7.609,11.115-7.883,18.242v50.355
		c0.273,7.105,2.926,13.234,7.867,18.229c4.949,4.985,11.02,7.518,18.035,7.518h50.4V190.707L386.114,190.658z"/>
	<path clip-path="url(#SVGID_2_)" d="M161.397,357.379c-2.556,2.393-4.874,3.885-8.492,3.885c-5.481,0-9.618-4.504-9.618-10.475
		c0-5.914,4.137-10.375,9.618-10.375c2.968,0,5.527,1.139,8.274,3.691l0.51,0.48l4.406-5.066l-0.466-0.441
		c-2.618-2.496-6.166-5.053-12.681-5.053c-9.553,0-16.762,7.244-16.762,16.854c0,9.557,7.113,16.76,16.544,16.76
		c5.352,0,9.28-1.721,13.136-5.732l0.454-0.473l-4.438-4.498L161.397,357.379z"/>
	<rect x="172.738" y="334.564" clip-path="url(#SVGID_2_)" width="6.836" height="32.533"/>
	<polygon clip-path="url(#SVGID_2_)" points="185.948,340.99 195.837,340.99 195.837,367.098 202.713,367.098 202.713,340.99 
		212.61,340.99 212.61,334.564 185.948,334.564 	"/>
	<polygon clip-path="url(#SVGID_2_)" points="233.35,347.793 224.981,334.563 216.901,334.563 229.862,354.336 229.862,367.098 
		236.731,367.098 236.731,354.203 249.7,334.563 241.799,334.563 	"/>
</g>
</svg>
