<?xml version="1.0" encoding="utf-8"?>
<!-- Generator: Adobe Illustrator 16.0.4, SVG Export Plug-In . SVG Version: 6.00 Build 0)  -->
<!DOCTYPE svg PUBLIC "-//W3C//DTD SVG 1.1//EN" "http://www.w3.org/Graphics/SVG/1.1/DTD/svg11.dtd">
<svg version="1.1" id="Layer_1" xmlns="http://www.w3.org/2000/svg" xmlns:xlink="http://www.w3.org/1999/xlink" x="0px" y="0px"
	 width="59.333px" height="68px" viewBox="0 0 59.333 68" enable-background="new 0 0 59.333 68" xml:space="preserve">
<path d="M36.891,32.882l-5.558,0.015v-5.573c0-0.295-0.258-0.59-0.608-0.59h-1.253c-0.35,0-0.59,0.295-0.59,0.59l0.015,5.58
	l-5.572,0.015c-0.295,0-0.59,0.202-0.59,0.553v1.253c0,0.351,0.295,0.608,0.59,0.608h5.579l0.015,5.558
	c0,0.295,0.203,0.59,0.553,0.59h1.253c0.35,0,0.608-0.295,0.608-0.59v-5.558h5.558c0.295,0,0.59-0.258,0.59-0.608v-1.253
	C37.481,33.122,37.186,32.882,36.891,32.882z"/>
</svg>
