<?xml version="1.0" encoding="utf-8"?>
<!-- Generator: Adobe Illustrator 15.0.0, SVG Export Plug-In . SVG Version: 6.00 Build 0)  -->
<!DOCTYPE svg PUBLIC "-//W3C//DTD SVG 1.1//EN" "http://www.w3.org/Graphics/SVG/1.1/DTD/svg11.dtd">
<svg version="1.1" id="Layer_1" xmlns="http://www.w3.org/2000/svg" xmlns:xlink="http://www.w3.org/1999/xlink" x="0px" y="0px"
	 width="121.669px" height="228.281px" viewBox="0 0 121.669 228.281" enable-background="new 0 0 121.669 228.281"
	 xml:space="preserve">
<g>
	<defs>
		<rect id="SVGID_1_" width="121.669" height="228.281"/>
	</defs>
	<clipPath id="SVGID_2_">
		<use xlink:href="#SVGID_1_"  overflow="visible"/>
	</clipPath>
	<g clip-path="url(#SVGID_2_)">
		<defs>
			<rect id="SVGID_3_" x="20.955" y="126.285" width="82.545" height="82.646"/>
		</defs>
		<clipPath id="SVGID_4_">
			<use xlink:href="#SVGID_3_"  overflow="visible"/>
		</clipPath>
		
			<linearGradient id="SVGID_5_" gradientUnits="userSpaceOnUse" x1="0" y1="228.2812" x2="1" y2="228.2812" gradientTransform="matrix(-76.322 -76.322 -76.322 76.322 17524.3809 -17215.9941)">
			<stop  offset="0" style="stop-color:#30302F"/>
			<stop  offset="0.1926" style="stop-color:#30302F"/>
			<stop  offset="1" style="stop-color:#4E4D4D"/>
		</linearGradient>
		<polygon clip-path="url(#SVGID_4_)" fill="url(#SVGID_5_)" points="62.228,250.204 -20.368,167.608 62.228,85.013 
			144.823,167.608 		"/>
	</g>
	<rect x="22.083" y="127.432" clip-path="url(#SVGID_2_)" fill="#353535" width="80.167" height="80"/>
	<g clip-path="url(#SVGID_2_)">
		<defs>
			<path id="SVGID_6_" d="M72.756,148.389l-25.493,0.176l0.944,45.81l12.96,13.058h41.084v-43.167l-17.3-26.207
				c0,0-7.238-5.064-15.527-5.064L72.756,148.389z"/>
		</defs>
		<clipPath id="SVGID_7_">
			<use xlink:href="#SVGID_6_"  overflow="visible"/>
		</clipPath>
		<defs>
			<filter id="Adobe_OpacityMaskFilter" filterUnits="userSpaceOnUse" x="10.516" y="105.848" width="128.482" height="128.728">
				<feColorMatrix  type="matrix" values="1 0 0 0 0  0 1 0 0 0  0 0 1 0 0  0 0 0 1 0"/>
			</filter>
		</defs>
		<mask maskUnits="userSpaceOnUse" x="10.516" y="105.848" width="128.482" height="128.728" id="SVGID_8_">
			<g filter="url(#Adobe_OpacityMaskFilter)">
				
					<linearGradient id="SVGID_9_" gradientUnits="userSpaceOnUse" x1="0" y1="228.334" x2="1" y2="228.334" gradientTransform="matrix(44.7591 52.5315 52.5315 -44.7591 -11938.5264 10368.4736)">
					<stop  offset="0" style="stop-color:#FFFFFF"/>
					<stop  offset="0.4756" style="stop-color:#FFFFFF"/>
					<stop  offset="0.9146" style="stop-color:#000000"/>
					<stop  offset="1" style="stop-color:#000000"/>
				</linearGradient>
				<polygon clip-path="url(#SVGID_7_)" fill="url(#SVGID_9_)" points="79.122,105.848 138.998,176.121 70.392,234.576 
					10.516,164.303 				"/>
			</g>
		</mask>
		
			<linearGradient id="SVGID_10_" gradientUnits="userSpaceOnUse" x1="0" y1="228.334" x2="1" y2="228.334" gradientTransform="matrix(44.7591 52.5315 52.5315 -44.7591 -11938.5283 10368.4746)">
			<stop  offset="0" style="stop-color:#151515"/>
			<stop  offset="0.4756" style="stop-color:#151515"/>
			<stop  offset="0.9146" style="stop-color:#000000"/>
			<stop  offset="1" style="stop-color:#000000"/>
		</linearGradient>
		<polygon clip-path="url(#SVGID_7_)" mask="url(#SVGID_8_)" fill="url(#SVGID_10_)" points="79.122,105.848 138.998,176.121 
			70.392,234.576 10.516,164.303 		"/>
	</g>
	<g clip-path="url(#SVGID_2_)">
		<defs>
			<rect id="SVGID_11_" width="121.669" height="228.281"/>
		</defs>
		<clipPath id="SVGID_12_">
			<use xlink:href="#SVGID_11_"  overflow="visible"/>
		</clipPath>
		<path clip-path="url(#SVGID_12_)" fill="#FFFFFF" d="M73.108,145.128H50.699c-1.898,0-3.437,1.538-3.437,3.437v43.205
			c0,1.896,1.539,3.435,3.437,3.435h22.409c1.897,0,3.437-1.539,3.437-3.435v-43.205C76.545,146.666,75.006,145.128,73.108,145.128
			 M61.903,193.337c-1.228,0-2.222-0.995-2.222-2.223c0-1.227,0.995-2.222,2.222-2.222s2.222,0.995,2.222,2.222
			C64.125,192.342,63.131,193.337,61.903,193.337 M73.538,186.147H50.269v-34.772h23.269V186.147z"/>
		<path clip-path="url(#SVGID_12_)" fill="#FFFFFF" d="M72.725,141.405c4.081,0,7.4,3.32,7.4,7.399c0,0.558-0.067,1.101-0.184,1.624
			l3.016,0.68c0.168-0.742,0.264-1.512,0.264-2.304c0-5.786-4.709-10.493-10.496-10.493c-0.733,0-1.45,0.076-2.144,0.222
			l0.632,3.029C71.702,141.461,72.207,141.405,72.725,141.405"/>
		<path clip-path="url(#SVGID_12_)" fill="#FFFFFF" d="M72.725,135.747c7.201,0,13.061,5.857,13.061,13.059
			c0,0.985-0.12,1.941-0.328,2.866l3.018,0.678c0.259-1.142,0.404-2.325,0.404-3.544c0-8.908-7.246-16.154-16.154-16.154
			c-1.131,0-2.233,0.119-3.301,0.342l0.633,3.029C70.918,135.844,71.812,135.747,72.725,135.747"/>
	</g>
	<g clip-path="url(#SVGID_2_)">
		<defs>
			<rect id="SVGID_13_" x="20.956" y="15.285" width="82.545" height="82.645"/>
		</defs>
		<clipPath id="SVGID_14_">
			<use xlink:href="#SVGID_13_"  overflow="visible"/>
		</clipPath>
		
			<linearGradient id="SVGID_15_" gradientUnits="userSpaceOnUse" x1="0" y1="228.2812" x2="1" y2="228.2812" gradientTransform="matrix(-76.322 -76.322 -76.322 76.322 17524.3809 -17326.9941)">
			<stop  offset="0" style="stop-color:#30302F"/>
			<stop  offset="0.1926" style="stop-color:#30302F"/>
			<stop  offset="1" style="stop-color:#4E4D4D"/>
		</linearGradient>
		<polygon clip-path="url(#SVGID_14_)" fill="url(#SVGID_15_)" points="62.229,139.203 -20.367,56.608 62.229,-25.987 
			144.823,56.608 		"/>
	</g>
	<g clip-path="url(#SVGID_2_)">
		<defs>
			<rect id="SVGID_16_" width="121.669" height="228.281"/>
		</defs>
		<clipPath id="SVGID_17_">
			<use xlink:href="#SVGID_16_"  overflow="visible"/>
		</clipPath>
		<rect x="22.083" y="16.43" clip-path="url(#SVGID_17_)" fill="#252525" width="80.167" height="80"/>
	</g>
	<g clip-path="url(#SVGID_2_)">
		<defs>
			<path id="SVGID_18_" d="M72.756,37.388l-25.493,0.176l0.944,45.81l12.96,13.056h41.084V53.264l-17.3-26.207
				c0,0-7.238-5.063-15.527-5.063L72.756,37.388z"/>
		</defs>
		<clipPath id="SVGID_19_">
			<use xlink:href="#SVGID_18_"  overflow="visible"/>
		</clipPath>
		<defs>
			<filter id="Adobe_OpacityMaskFilter_1_" filterUnits="userSpaceOnUse" x="10.517" y="-5.151" width="128.48" height="128.726">
				<feColorMatrix  type="matrix" values="1 0 0 0 0  0 1 0 0 0  0 0 1 0 0  0 0 0 1 0"/>
			</filter>
		</defs>
		<mask maskUnits="userSpaceOnUse" x="10.517" y="-5.151" width="128.48" height="128.726" id="SVGID_20_">
			<g filter="url(#Adobe_OpacityMaskFilter_1_)">
				
					<linearGradient id="SVGID_21_" gradientUnits="userSpaceOnUse" x1="0" y1="228.334" x2="1" y2="228.334" gradientTransform="matrix(44.7586 52.5309 52.5309 -44.7586 -11938.3828 10257.3506)">
					<stop  offset="0" style="stop-color:#FFFFFF"/>
					<stop  offset="0.3386" style="stop-color:#FFFFFF"/>
					<stop  offset="0.9146" style="stop-color:#000000"/>
					<stop  offset="1" style="stop-color:#000000"/>
				</linearGradient>
				<polygon clip-path="url(#SVGID_19_)" fill="url(#SVGID_21_)" points="79.122,-5.151 138.997,65.121 70.392,123.575 
					10.517,53.303 				"/>
			</g>
		</mask>
		
			<linearGradient id="SVGID_22_" gradientUnits="userSpaceOnUse" x1="0" y1="228.334" x2="1" y2="228.334" gradientTransform="matrix(44.7586 52.5309 52.5309 -44.7586 -11938.3828 10257.3506)">
			<stop  offset="0" style="stop-color:#151515"/>
			<stop  offset="0.3386" style="stop-color:#151515"/>
			<stop  offset="0.9146" style="stop-color:#000000"/>
			<stop  offset="1" style="stop-color:#000000"/>
		</linearGradient>
		<polygon clip-path="url(#SVGID_19_)" mask="url(#SVGID_20_)" fill="url(#SVGID_22_)" points="79.122,-5.151 138.997,65.121 
			70.392,123.575 10.517,53.303 		"/>
	</g>
	<g clip-path="url(#SVGID_2_)">
		<defs>
			<rect id="SVGID_23_" width="121.669" height="228.281"/>
		</defs>
		<clipPath id="SVGID_24_">
			<use xlink:href="#SVGID_23_"  overflow="visible"/>
		</clipPath>
		<path clip-path="url(#SVGID_24_)" fill="#DBDADA" d="M73.108,34.128H50.699c-1.898,0-3.437,1.538-3.437,3.436v43.204
			c0,1.898,1.539,3.436,3.437,3.436h22.409c1.897,0,3.437-1.538,3.437-3.436V37.564C76.545,35.666,75.006,34.128,73.108,34.128
			 M61.903,82.337c-1.228,0-2.222-0.995-2.222-2.223c0-1.227,0.995-2.222,2.222-2.222s2.222,0.995,2.222,2.222
			C64.125,81.342,63.131,82.337,61.903,82.337 M73.538,75.147H50.269V40.374h23.269V75.147z"/>
		<path clip-path="url(#SVGID_24_)" fill="#DBDADA" d="M72.725,30.406c4.081,0,7.4,3.319,7.4,7.399c0,0.558-0.067,1.1-0.184,1.623
			l3.016,0.68c0.168-0.743,0.264-1.511,0.264-2.303c0-5.787-4.709-10.494-10.496-10.494c-0.733,0-1.45,0.077-2.144,0.222l0.632,3.03
			C71.702,30.461,72.207,30.406,72.725,30.406"/>
		<path clip-path="url(#SVGID_24_)" fill="#DBDADA" d="M72.725,24.747c7.201,0,13.061,5.858,13.061,13.058
			c0,0.985-0.12,1.942-0.328,2.866l3.018,0.679c0.259-1.143,0.404-2.326,0.404-3.545c0-8.907-7.246-16.153-16.154-16.153
			c-1.131,0-2.233,0.119-3.301,0.342l0.633,3.029C70.918,24.843,71.812,24.747,72.725,24.747"/>
	</g>
</g>
</svg>
