<?xml version="1.0" encoding="utf-8"?>
<!-- Generator: Adobe Illustrator 15.1.0, SVG Export Plug-In . SVG Version: 6.00 Build 0)  -->
<!DOCTYPE svg PUBLIC "-//W3C//DTD SVG 1.1//EN" "http://www.w3.org/Graphics/SVG/1.1/DTD/svg11.dtd">
<svg version="1.1" id="Layer_1" xmlns="http://www.w3.org/2000/svg" xmlns:xlink="http://www.w3.org/1999/xlink" x="0px" y="0px"
	 width="338px" height="362px" viewBox="0 0 338 362" enable-background="new 0 0 338 362" xml:space="preserve">
<image overflow="visible" enable-background="new    " width="338" height="362" xlink:href="../../../../../../Desktop/HEARDCITY/heard-charles/www/items/Cory_Melious_Boot.png" >
</image>
<path fill="none" d="M264.667,2.333L277,44c0,0,12.667,9.333,16,38s36.667,104.334,36.667,104.334v41.333L328,250
	c0,0,11.334,29.668,1.667,53.334c4.666,2.333,13.332,12,6.666,29.333c-2.666,3.333-27.001,25.333-130,8
	c-7.666-1-172.667,11.666-190.333-5.667c-3.667-12.333-0.667-20.332,3.667-21.666c0.667-4.667-19-41.334,49.667-73.667
	c1.667-6.333-6-9.333,82.667-53.333c0-5,8.333-26.334-36.667-71.334C117,100.667,114.334-9.667,264.667,2.333z"/>
</svg>
